<svg width="26" height="26" viewBox="0 0 26 26" fill="none" xmlns="http://www.w3.org/2000/svg">
<path d="M5.88301 18.6528C5.58301 18.4528 5.32501 18.1978 5.02301 17.8368C4.86625 17.6449 4.71092 17.4519 4.55701 17.2578C4.09401 16.6828 3.80201 16.4178 3.50001 16.3088C3.25031 16.2191 3.04645 16.034 2.93327 15.794C2.82009 15.5541 2.80687 15.279 2.89651 15.0293C2.98615 14.7796 3.17132 14.5757 3.41127 14.4625C3.65122 14.3494 3.92631 14.3361 4.17601 14.4258C4.92801 14.6958 5.43701 15.1608 6.12301 16.0138C6.02901 15.8968 6.46301 16.4408 6.55601 16.5528C6.74601 16.7798 6.88601 16.9178 6.99601 16.9908C7.20001 17.1278 7.58301 17.1868 8.14601 17.1308C8.16901 16.7488 8.24001 16.3778 8.34801 16.0358C5.38001 15.3098 3.70001 13.3958 3.70001 9.63978C3.70001 8.39978 4.07001 7.28378 4.75801 6.34778C4.54001 5.45378 4.57301 4.37278 5.06001 3.15578C5.11528 3.01811 5.20048 2.89447 5.30945 2.79381C5.41841 2.69315 5.54841 2.61799 5.69001 2.57378C5.77101 2.54978 5.81701 2.53878 5.89801 2.52678C6.70101 2.40378 7.83501 2.69678 9.31301 3.62278C10.1938 3.41686 11.0955 3.31351 12 3.31478C12.912 3.31478 13.818 3.41878 14.684 3.62278C16.161 2.68978 17.297 2.39678 18.106 2.52678C18.191 2.53978 18.263 2.55678 18.324 2.57678C18.4628 2.62256 18.5899 2.69821 18.6964 2.79842C18.8028 2.89863 18.886 3.02095 18.94 3.15678C19.427 4.37278 19.46 5.45378 19.242 6.34678C19.933 7.28278 20.3 8.39178 20.3 9.63978C20.3 13.3968 18.626 15.3048 15.658 16.0318C15.783 16.4468 15.848 16.9108 15.848 17.4118C15.8481 18.3171 15.8441 19.2225 15.836 20.1278C16.0606 20.1768 16.2614 20.3016 16.4047 20.4813C16.548 20.6611 16.6251 20.8847 16.6228 21.1145C16.6206 21.3444 16.5393 21.5664 16.3925 21.7433C16.2457 21.9202 16.0425 22.0412 15.817 22.0858C14.678 22.3138 13.834 21.5538 13.834 20.5608L13.836 20.1148L13.841 19.4098C13.846 18.7018 13.848 18.0718 13.848 17.4118C13.848 16.7148 13.665 16.2598 13.423 16.0518C12.762 15.4818 13.097 14.3968 13.963 14.2998C16.93 13.9668 18.3 12.8178 18.3 9.63978C18.3 8.68478 17.988 7.89578 17.387 7.23578C17.2604 7.09702 17.1754 6.92541 17.1418 6.74059C17.1082 6.55577 17.1273 6.36523 17.197 6.19078C17.363 5.77678 17.434 5.23378 17.293 4.57678L17.283 4.57978C16.792 4.71878 16.173 5.01978 15.425 5.52878C15.3044 5.61063 15.1673 5.66513 15.0234 5.68845C14.8796 5.71177 14.7323 5.70335 14.592 5.66378C13.7479 5.43007 12.8759 5.31265 12 5.31478C11.11 5.31478 10.228 5.43378 9.40801 5.66478C9.26823 5.70404 9.12158 5.71238 8.97824 5.68924C8.83491 5.6661 8.69834 5.61203 8.57801 5.53078C7.82601 5.02378 7.20401 4.72378 6.71001 4.58378C6.56601 5.23678 6.63701 5.77778 6.80201 6.19078C6.87182 6.36514 6.89111 6.55563 6.85769 6.74044C6.82426 6.92525 6.73947 7.09692 6.61301 7.23578C6.01601 7.88978 5.70001 8.69378 5.70001 9.63978C5.70001 12.8118 7.07101 13.9678 10.022 14.2998C10.887 14.3968 11.223 15.4768 10.566 16.0478C10.374 16.2158 10.137 16.7798 10.137 17.4118V20.5618C10.137 21.5478 9.30201 22.2868 8.17701 22.0898C7.94878 22.0497 7.74154 21.9316 7.59073 21.7557C7.43991 21.5798 7.35488 21.3569 7.35015 21.1252C7.34543 20.8936 7.42131 20.6674 7.56483 20.4855C7.70835 20.3036 7.9106 20.1771 8.13701 20.1278V19.1378C7.22701 19.1988 6.47501 19.0498 5.88301 18.6528V18.6528Z" fill="white"/>
</svg>
