<svg width="425" height="228" viewBox="0 0 425 228" fill="none" xmlns="http://www.w3.org/2000/svg">
<path d="M231.692 116.623C230.912 116.669 230.136 116.732 229.363 116.83C228.03 117.001 226.719 117.333 225.438 117.737C224.302 118.096 223.175 118.487 222.045 118.862C221.268 119.121 220.492 119.387 219.715 119.65C218.647 120.012 217.586 120.39 216.551 120.843C215.3 121.389 214.124 122.089 212.99 122.845C210.874 124.252 208.98 125.967 207.215 127.785C206.465 128.557 205.76 129.366 205.04 130.164C204.473 130.792 203.903 131.417 203.336 132.041C202.779 132.656 202.226 133.28 201.715 133.938C201.207 134.592 200.751 135.292 200.309 135.988C199.454 137.329 198.599 138.67 197.882 140.093C197.564 140.725 197.289 141.365 197.037 142.023C196.886 142.414 196.702 142.805 196.585 143.206C196.142 144.672 195.693 146.131 195.471 147.65C195.379 148.274 195.343 148.895 195.307 149.523C195.251 150.44 195.248 151.357 195.277 152.274C195.297 152.856 195.353 153.437 195.431 154.016C195.54 154.788 195.746 155.541 195.962 156.287C196.296 157.437 196.781 158.535 197.325 159.6C198.481 161.858 199.867 163.998 201.544 165.901C202.645 167.149 203.873 168.257 205.112 169.365C206.677 170.768 208.394 171.961 210.219 173.003C211.254 173.595 212.328 174.098 213.426 174.558C214.54 175.024 215.657 175.462 216.813 175.81C218.507 176.319 220.24 176.651 221.969 176.99C222.68 177.131 223.394 177.276 224.112 177.384C224.6 177.457 225.085 177.529 225.573 177.604C226.015 177.67 226.47 177.69 226.916 177.729C227.06 177.742 227.204 177.752 227.351 177.762C226.673 178.653 225.959 179.514 225.252 180.378C224.203 181.657 223.129 182.909 222.117 184.217C220.924 185.755 219.873 187.412 219.021 189.164C218.762 189.696 218.805 190.403 219.034 190.935C219.267 191.478 219.709 191.915 220.253 192.141C220.816 192.375 221.458 192.368 222.018 192.128C222.585 191.882 222.955 191.451 223.221 190.906C223.407 190.521 223.604 190.146 223.807 189.772C224.629 188.464 225.517 187.202 226.493 186.005C227.532 184.737 228.603 183.494 229.625 182.212C230.621 180.97 231.59 179.708 232.488 178.393C232.635 178.176 232.783 177.959 232.93 177.739C233.851 177.647 234.755 177.443 235.649 177.207C235.669 177.263 235.685 177.322 235.705 177.378C236.177 178.86 236.56 180.375 237.064 181.848C237.582 183.366 238.182 184.852 238.732 186.357C239.004 187.096 239.233 187.852 239.508 188.592C239.797 189.367 240.098 190.137 240.396 190.909C240.448 191.04 240.511 191.165 240.586 191.277C240.586 191.307 240.589 191.34 240.589 191.369C240.589 191.533 240.589 191.694 240.589 191.859C240.593 192.063 240.593 192.266 240.596 192.47C240.655 192.868 240.809 193.223 241.054 193.538C241.425 194.012 241.972 194.324 242.568 194.396C243.164 194.468 243.77 194.301 244.242 193.929C244.379 193.791 244.514 193.653 244.651 193.515C244.897 193.187 245.048 192.819 245.1 192.411C245.1 191.589 245.103 190.768 245.067 189.946C245.035 189.246 244.995 188.546 244.969 187.849C244.917 186.508 244.89 185.164 244.871 183.823C244.868 183.484 244.864 183.143 244.858 182.804C244.845 181.226 244.894 179.652 244.907 178.078C244.92 176.901 244.864 175.731 244.773 174.561C245.752 175.179 246.718 175.82 247.698 176.438C249.228 177.404 250.82 178.258 252.464 179.008C253.604 179.527 254.767 180.053 255.973 180.388C256.169 180.441 256.366 180.49 256.562 180.543C256.969 180.592 257.362 180.536 257.738 180.375C258.279 180.142 258.715 179.698 258.941 179.152C259.173 178.587 259.167 177.943 258.928 177.381C258.829 177.213 258.731 177.046 258.633 176.878C258.387 176.563 258.079 176.329 257.709 176.175C256.533 175.846 255.409 175.333 254.296 174.837C253.28 174.387 252.294 173.884 251.324 173.342C250.489 172.835 249.667 172.306 248.848 171.777C249.067 171.771 249.29 171.764 249.509 171.757C251.082 171.711 252.615 171.333 254.135 170.972C254.843 170.804 255.55 170.624 256.248 170.423C256.739 170.285 257.227 170.144 257.719 170.002C258.315 169.831 258.908 169.651 259.491 169.444C260.074 169.24 260.638 168.99 261.198 168.734C262.023 168.356 262.836 167.961 263.648 167.554C264.3 167.225 264.958 166.903 265.587 166.532C266.724 165.858 267.792 165.105 268.755 164.195C269.617 163.38 270.419 162.492 271.143 161.552C271.441 161.161 271.743 160.773 272.041 160.382C273.089 159.015 273.787 157.441 274.465 155.87C274.789 155.12 275.074 154.351 275.323 153.572C275.549 152.872 275.743 152.156 275.893 151.436C276.024 150.802 276.096 150.154 276.149 149.51C276.319 147.472 276.231 145.424 275.92 143.406C275.861 143.019 275.818 142.621 275.736 142.236C275.625 141.717 275.51 141.198 275.395 140.682C275.186 139.722 274.871 138.782 274.596 137.839C274.285 136.767 273.823 135.722 273.325 134.726C272.712 133.504 271.992 132.324 271.206 131.206C270.505 130.21 269.715 129.277 268.876 128.396C267.969 127.44 267.016 126.523 266.007 125.678C265.112 124.929 264.176 124.229 263.18 123.621C262.393 123.141 261.588 122.69 260.772 122.263C260.005 121.862 259.245 121.451 258.462 121.087C257.991 120.866 257.519 120.646 257.047 120.429C256.733 120.285 256.395 120.179 256.071 120.058C255.622 119.89 255.173 119.723 254.728 119.555C254.384 119.427 254.02 119.338 253.67 119.23C252.88 118.986 252.091 118.746 251.298 118.516C249.745 118.066 248.193 117.583 246.614 117.248C245.775 117.067 244.92 116.916 244.065 116.834C243.502 116.778 242.935 116.725 242.371 116.669C240.704 116.508 239.027 116.462 237.353 116.449C237.195 116.446 237.035 116.446 236.878 116.446C235.141 116.439 233.418 116.525 231.692 116.623ZM228.17 173.25C227.427 173.22 226.677 173.167 225.943 173.056C225.013 172.918 224.092 172.766 223.168 172.592C222.267 172.425 221.366 172.244 220.466 172.06C220.036 171.971 219.611 171.882 219.185 171.777C217.992 171.445 216.826 171.038 215.683 170.564C214.484 170.068 213.305 169.545 212.171 168.914C210.726 168.057 209.341 167.064 208.089 165.943C207.395 165.322 206.697 164.711 206.029 164.063C204.597 162.604 203.339 160.977 202.278 159.229C201.456 157.812 200.709 156.333 200.221 154.765C199.942 153.681 199.805 152.576 199.769 151.459C199.775 150.782 199.815 150.111 199.854 149.434C199.913 148.455 200.08 147.489 200.306 146.535C200.496 145.898 200.67 145.247 200.909 144.626C201.086 144.162 201.266 143.699 201.443 143.236C201.737 142.473 202.114 141.734 202.517 141.017C203.015 140.169 203.552 139.341 204.083 138.513C204.656 137.612 205.275 136.744 205.967 135.933C206.363 135.469 206.772 135.012 207.182 134.562C208.42 133.198 209.629 131.795 210.913 130.473C211.755 129.635 212.64 128.853 213.563 128.107C214.546 127.315 215.558 126.565 216.633 125.902C218.733 124.709 221.055 123.999 223.332 123.223C223.836 123.052 224.344 122.881 224.852 122.714C225.723 122.424 226.591 122.115 227.473 121.852C228.829 121.494 230.205 121.297 231.604 121.188C232.278 121.136 232.953 121.1 233.628 121.06C234.519 121.008 235.41 120.985 236.304 120.962C237.002 120.968 237.703 120.975 238.401 120.981C239.161 120.988 239.924 121.057 240.684 121.096C241.385 121.133 242.083 121.215 242.784 121.281C244.157 121.412 245.516 121.619 246.856 121.951C248.743 122.46 250.61 123.032 252.477 123.607C253.287 123.857 254.069 124.17 254.862 124.465C255.642 124.758 256.386 125.136 257.139 125.487C257.558 125.681 257.964 125.911 258.377 126.128C259.009 126.457 259.635 126.792 260.254 127.141C261.948 128.153 263.488 129.415 264.903 130.789C266.295 132.202 267.537 133.744 268.572 135.44C268.971 136.143 269.338 136.863 269.666 137.602C269.964 138.276 270.239 138.976 270.446 139.683C270.583 140.149 270.717 140.619 270.855 141.086C271.006 141.766 271.186 142.447 271.291 143.134C271.491 144.422 271.687 145.697 271.726 147.002C271.726 148.412 271.635 149.842 271.32 151.219C271.032 152.235 270.668 153.224 270.252 154.19C269.912 154.979 269.581 155.768 269.175 156.524C268.778 157.171 268.32 157.769 267.858 158.371C267.294 159.107 266.708 159.823 266.072 160.497C265.286 161.256 264.425 161.934 263.501 162.515C262.983 162.805 262.452 163.067 261.925 163.334C261.588 163.505 261.257 163.679 260.916 163.84C260.503 164.034 260.091 164.231 259.678 164.428C258.649 164.915 257.601 165.312 256.513 165.654C256.703 165.601 256.89 165.546 257.08 165.493C256.297 165.717 255.521 165.943 254.734 166.147C253.879 166.367 253.021 166.574 252.163 166.781C251.665 166.9 251.157 166.988 250.653 167.071C250.073 167.163 249.477 167.235 248.887 167.255C248.412 167.268 247.94 167.281 247.465 167.297C249.274 164.836 251.17 162.443 253.126 160.1C254.164 158.857 255.206 157.612 256.264 156.382C256.782 155.781 257.316 155.189 257.85 154.601C258.384 154.013 258.898 153.405 259.432 152.816C259.825 152.382 259.956 151.663 259.874 151.101C259.789 150.516 259.471 149.98 259.003 149.622C258.521 149.25 257.896 149.089 257.293 149.181C257.103 149.234 256.916 149.29 256.726 149.342C256.363 149.5 256.061 149.74 255.819 150.052C255.285 150.64 254.771 151.249 254.237 151.837C253.686 152.442 253.136 153.05 252.602 153.671C251.511 154.936 250.44 156.221 249.369 157.503C247.544 159.689 245.778 161.924 244.085 164.211C243.94 163.784 243.8 163.357 243.659 162.929C243.144 161.339 242.656 159.748 242.054 158.187C240.914 155.229 239.718 152.29 238.525 149.355C238.044 148.175 237.572 146.989 237.084 145.809C236.583 144.593 236.026 143.403 235.446 142.223C235.181 141.681 234.794 141.254 234.228 141.017C233.952 140.902 233.658 140.846 233.363 140.846C233.055 140.846 232.747 140.909 232.465 141.03C231.505 141.444 231.004 142.44 231.125 143.426C231.007 143.761 230.968 144.123 231.034 144.491C231.096 144.836 231.086 145.201 231.115 145.553C231.148 145.96 231.191 146.364 231.233 146.769C231.319 147.574 231.4 148.376 231.502 149.181C231.702 150.792 232.062 152.379 232.373 153.973C232.691 155.6 232.924 157.243 233.173 158.88C233.418 160.491 233.671 162.101 233.906 163.715C234.011 164.425 234.119 165.135 234.214 165.851C233.821 165.628 233.422 165.408 233.025 165.194C231.538 164.402 230.018 163.689 228.485 162.985C227.112 162.358 225.723 161.769 224.354 161.125C223.669 160.803 222.995 160.461 222.316 160.126C221.773 159.856 221.232 159.58 220.672 159.35C219.814 158.999 218.893 158.798 217.979 158.644C216.99 158.476 215.974 159.13 215.604 160.037C215.372 160.599 215.378 161.247 215.617 161.809C215.716 161.976 215.814 162.144 215.912 162.308C216.158 162.624 216.466 162.857 216.836 163.012C217.049 163.12 217.295 163.173 217.547 163.186C217.783 163.225 218.015 163.271 218.248 163.321C219.293 163.646 220.262 164.172 221.239 164.661C221.94 165.013 222.647 165.358 223.365 165.677C224.852 166.341 226.343 166.995 227.82 167.682C228.685 168.083 229.543 168.49 230.391 168.924C231.06 169.266 231.718 169.631 232.373 170.002C232.511 170.081 232.645 170.163 232.783 170.246C232.662 170.39 232.544 170.535 232.426 170.683C231.934 171.297 231.446 171.918 230.994 172.566C230.824 172.809 230.65 173.056 230.48 173.302C229.697 173.299 228.934 173.282 228.17 173.25ZM240.376 176.75C240.383 176.934 240.389 177.118 240.396 177.305V177.302C240.389 177.111 240.383 176.927 240.376 176.75Z" fill="#49B577"/>
<path d="M361.939 95.319C362.767 95.5194 363.596 95.7017 364.434 95.8452C365.879 96.0919 367.351 96.1632 368.816 96.1498C370.116 96.1384 371.415 96.0896 372.713 96.059C373.606 96.0356 374.5 96.0054 375.394 95.9786C376.623 95.9418 377.85 95.8859 379.074 95.7427C380.553 95.5725 382.003 95.2172 383.426 94.79C386.081 93.9973 388.602 92.8115 391.023 91.4787C392.051 90.9122 393.043 90.2935 394.049 89.6902C394.841 89.2161 395.634 88.7465 396.424 88.2758C397.201 87.8123 397.977 87.3375 398.719 86.8148C399.457 86.2945 400.155 85.7095 400.839 85.1238C402.158 83.9978 403.476 82.8718 404.678 81.6162C405.211 81.0594 405.702 80.4787 406.174 79.8735C406.456 79.5137 406.772 79.1642 407.023 78.7836C407.951 77.3958 408.884 76.017 409.6 74.5044C409.895 73.8824 410.131 73.246 410.368 72.6029C410.718 71.6643 411.014 70.709 411.276 69.7433C411.44 69.1304 411.568 68.5059 411.67 67.8776C411.803 67.0377 411.828 66.187 411.84 65.34C411.858 64.0339 411.703 62.7345 411.475 61.4507C410.988 58.7274 410.225 56.0545 409.082 53.5354C408.332 51.8822 407.404 50.3356 406.466 48.7859C405.28 46.8233 403.87 45.0321 402.299 43.3641C401.408 42.4173 400.448 41.5504 399.45 40.7209C398.437 39.8792 397.411 39.0674 396.316 38.3356C394.713 37.2646 393.011 36.3662 391.315 35.462C390.619 35.0881 389.92 34.7097 389.206 34.368C388.72 34.137 388.238 33.9071 387.753 33.6727C387.313 33.4633 386.844 33.2976 386.392 33.1145C386.246 33.0548 386.099 32.9986 385.948 32.9414C386.939 32.2286 387.958 31.5581 388.972 30.8821C390.472 29.8828 391.992 28.9193 393.464 27.8776C395.198 26.6535 396.823 25.2611 398.269 23.7055C398.709 23.2327 398.889 22.4822 398.82 21.8539C398.75 21.2142 398.428 20.6174 397.933 20.2076C397.42 19.7847 396.749 19.5869 396.088 19.6587C395.418 19.7351 394.895 20.0662 394.444 20.5506C394.127 20.8922 393.803 21.2203 393.472 21.5463C392.197 22.6485 390.869 23.6818 389.47 24.6184C387.983 25.6105 386.47 26.5648 384.995 27.5759C383.561 28.5542 382.147 29.5614 380.792 30.6465C380.57 30.8257 380.347 31.005 380.123 31.1876C379.133 30.9903 378.126 30.9147 377.118 30.8765C377.115 30.8119 377.117 30.745 377.114 30.6805C377.094 28.9843 377.177 27.282 377.121 25.5857C377.065 23.8372 376.913 22.0969 376.819 20.3517C376.771 19.4938 376.772 18.6324 376.721 17.7735C376.668 16.8727 376.598 15.9746 376.534 15.0741C376.521 14.9203 376.496 14.7702 376.453 14.6297C376.462 14.5988 376.469 14.5635 376.479 14.5326C376.531 14.3613 376.582 14.1933 376.635 14.0219C376.696 13.8084 376.761 13.5959 376.823 13.3823C376.888 12.9488 376.84 12.5295 376.685 12.1222C376.45 11.5106 375.978 11.0107 375.38 10.7453C374.781 10.4799 374.096 10.4616 373.485 10.6986C373.298 10.7987 373.114 10.8999 372.926 11C372.565 11.2645 372.291 11.6003 372.106 12.0087C371.844 12.8656 371.579 13.7214 371.355 14.5898C371.166 15.3304 370.984 16.073 370.789 16.808C370.417 18.2231 370.016 19.6334 369.609 21.0381C369.504 21.3922 369.399 21.7497 369.298 22.1049C368.809 23.7543 368.256 25.3805 367.74 27.0181C367.352 28.2411 367.037 29.479 366.76 30.7285C365.935 29.772 365.132 28.7957 364.307 27.8391C363.02 26.3439 361.632 24.9454 360.155 23.6399C359.132 22.735 358.087 21.816 356.936 21.0823C356.748 20.9648 356.559 20.8507 356.371 20.7333C355.963 20.5524 355.535 20.4854 355.091 20.5333C354.453 20.6044 353.857 20.9283 353.447 21.4253C353.025 21.9407 352.826 22.6146 352.896 23.277C352.946 23.4831 352.995 23.6892 353.044 23.8953C353.199 24.3027 353.446 24.6442 353.783 24.9232C354.905 25.6407 355.913 26.5335 356.917 27.406C357.832 28.1992 358.7 29.0378 359.539 29.9124C360.249 30.7064 360.937 31.5203 361.623 32.3331C361.392 32.27 361.157 32.2059 360.926 32.1428C359.272 31.6897 357.553 31.5954 355.852 31.4881C355.061 31.4374 354.265 31.4004 353.474 31.3872C352.917 31.3745 352.363 31.3664 351.806 31.3572C351.13 31.3454 350.454 31.345 349.78 31.3751C349.107 31.4019 348.439 31.4828 347.773 31.5716C346.792 31.7028 345.819 31.8552 344.842 32.0213C344.057 32.1564 343.268 32.2825 342.494 32.4694C341.094 32.8098 339.74 33.2544 338.446 33.897C337.287 34.4725 336.168 35.1422 335.113 35.8918C334.677 36.2047 334.24 36.5131 333.804 36.826C332.275 37.9178 331.046 39.3373 329.838 40.7597C329.261 41.4378 328.719 42.1491 328.211 42.8821C327.752 43.5401 327.322 44.2258 326.936 44.9284C326.597 45.5482 326.315 46.2004 326.055 46.8556C325.228 48.9264 324.668 51.09 324.35 53.2937C324.288 53.717 324.205 54.1453 324.168 54.5724C324.119 55.1495 324.073 55.7276 324.028 56.3023C323.941 57.3699 323.969 58.4505 323.956 59.5219C323.939 60.7384 324.087 61.9756 324.289 63.1729C324.539 64.6431 324.914 66.1033 325.378 67.5192C325.792 68.7812 326.318 70.0062 326.912 71.1921C327.553 72.4787 328.255 73.7387 329.038 74.9412C329.732 76.0076 330.486 77.0363 331.331 77.9877C331.998 78.7387 332.695 79.4651 333.409 80.1706C334.081 80.833 334.743 81.5037 335.443 82.1336C335.865 82.5136 336.286 82.8936 336.709 83.2701C336.991 83.5211 337.31 83.7383 337.609 83.9685C338.024 84.2863 338.438 84.6042 338.849 84.9209C339.167 85.1642 339.518 85.3726 339.849 85.5974C340.595 86.1027 341.342 86.6045 342.095 87.097C343.571 88.0614 345.037 89.0601 346.577 89.9128C347.394 90.3686 348.237 90.7987 349.103 91.1569C349.672 91.3947 350.247 91.6301 350.816 91.8679C352.504 92.5672 354.239 93.1497 355.98 93.6968C356.143 93.7503 356.31 93.8015 356.474 93.8516C358.283 94.4117 360.107 94.8717 361.939 95.319ZM383.656 37.3865C384.422 37.6544 385.188 37.9482 385.917 38.2986C386.844 38.739 387.755 39.19 388.663 39.6661C389.549 40.128 390.431 40.6035 391.312 41.0826C391.731 41.3119 392.147 41.5401 392.558 41.7855C393.696 42.5117 394.782 43.3083 395.824 44.1662C396.916 45.0658 397.979 45.9866 398.96 47.0059C400.193 48.3609 401.322 49.8376 402.27 51.4052C402.796 52.2743 403.329 53.1342 403.82 54.0224C404.848 56.0004 405.641 58.098 406.191 60.2597C406.597 61.999 406.905 63.7794 406.914 65.57C406.859 66.7898 406.651 67.9853 406.332 69.1622C406.109 69.8662 405.855 70.5529 405.598 71.2465C405.224 72.2491 404.742 73.2036 404.203 74.1256C403.802 74.73 403.413 75.3534 402.966 75.925C402.634 76.3519 402.298 76.7778 401.966 77.2047C401.415 77.906 400.787 78.5571 400.138 79.176C399.349 79.9016 398.525 80.5942 397.707 81.2888C396.822 82.0453 395.9 82.7529 394.921 83.3793C394.36 83.7363 393.787 84.0822 393.216 84.4213C391.49 85.4492 389.783 86.5276 388.022 87.4963C386.877 88.1021 385.706 88.636 384.504 89.1197C383.227 89.6326 381.933 90.0915 380.601 90.4415C378.031 91.0166 375.382 91.0169 372.761 91.1003C372.18 91.1178 371.596 91.1342 371.013 91.1472C370.012 91.1712 369.008 91.2167 368.006 91.2101C366.477 91.1516 364.979 90.9188 363.486 90.5862C362.765 90.426 362.05 90.2487 361.334 90.0747C360.388 89.8457 359.451 89.5857 358.511 89.3247C357.786 89.0955 357.057 88.8653 356.331 88.6361C355.541 88.387 354.767 88.0718 353.987 87.7885C353.267 87.5274 352.565 87.2194 351.855 86.9274C350.466 86.3529 349.114 85.7038 347.822 84.9306C346.017 83.7981 344.252 82.6067 342.488 81.4118C341.724 80.8935 341.007 80.3184 340.274 79.7573C339.554 79.2038 338.899 78.5726 338.225 77.9658C337.85 77.6299 337.5 77.2605 337.138 76.9028C336.584 76.3586 336.038 75.8096 335.503 75.2489C334.06 73.6535 332.856 71.8467 331.818 69.963C330.816 68.0455 330.013 66.0423 329.474 63.9437C329.281 63.0829 329.128 62.2153 329.022 61.3397C328.926 60.5421 328.862 59.7243 328.872 58.9216C328.877 58.391 328.887 57.8581 328.892 57.3275C328.952 56.57 328.98 55.803 329.09 55.0532C329.292 53.6459 329.494 52.2534 329.868 50.8801C330.318 49.4096 330.869 47.9478 331.636 46.6119C332.26 45.6446 332.954 44.7288 333.696 43.8536C334.303 43.1395 334.899 42.4223 335.564 41.7634C336.183 41.2145 336.852 40.7368 337.526 40.2567C338.348 39.6685 339.188 39.1081 340.065 38.608C341.127 38.0667 342.241 37.6352 343.39 37.3229C344.022 37.1862 344.659 37.0811 345.294 36.9715C345.701 36.9008 346.101 36.8246 346.508 36.7652C347 36.6945 347.493 36.6203 347.987 36.5462C349.214 36.3667 350.434 36.286 351.677 36.2761C351.463 36.2704 351.25 36.2692 351.035 36.2635C351.923 36.2799 352.805 36.2908 353.69 36.3288C354.651 36.3716 355.613 36.4291 356.574 36.4867C357.131 36.522 357.688 36.5912 358.241 36.6663C358.875 36.7551 359.52 36.8697 360.141 37.037C360.64 37.1747 361.136 37.3113 361.637 37.4455C358.967 39.4366 356.226 41.3275 353.44 43.1482C351.961 44.1129 350.478 45.08 348.983 46.0248C348.251 46.4871 347.506 46.9339 346.761 47.3773C346.017 47.8207 345.287 48.2909 344.543 48.7343C343.994 49.0615 343.628 49.7704 343.535 50.3826C343.437 51.0199 343.598 51.6798 343.972 52.2027C344.356 52.7435 344.957 53.1108 345.615 53.2069C345.83 53.2126 346.043 53.2139 346.257 53.2196C346.687 53.1709 347.078 53.0167 347.43 52.7684C348.174 52.325 348.904 51.8547 349.649 51.4113C350.415 50.956 351.183 50.4973 351.938 50.0196C353.479 49.0476 355.006 48.0488 356.531 47.0533C359.13 45.3554 361.684 43.5873 364.179 41.7413C364.193 42.2328 364.204 42.7233 364.215 43.2138C364.244 45.0367 364.247 46.8512 364.378 48.6714C364.624 52.1195 364.935 55.5648 365.243 59.0057C365.369 60.3897 365.483 61.7773 365.616 63.1634C365.751 64.5913 365.953 66.0096 366.182 67.4249C366.285 68.075 366.552 68.6438 367.068 69.0712C367.318 69.2788 367.608 69.431 367.916 69.525C368.237 69.6231 368.578 69.6561 368.91 69.6191C370.043 69.493 370.883 68.6142 371.071 67.5473C371.301 67.2352 371.457 66.8707 371.506 66.4659C371.551 66.0862 371.678 65.7089 371.759 65.3327C371.855 64.8973 371.939 64.4621 372.023 64.0269C372.191 63.16 372.361 62.2976 372.512 61.4254C372.817 59.6822 372.947 57.9118 373.13 56.1503C373.317 54.3523 373.598 52.5644 373.86 50.7781C374.117 49.0203 374.367 47.2604 374.636 45.5022C374.753 44.7285 374.866 43.9537 374.995 43.1762C375.334 43.5345 375.681 43.8915 376.026 44.2406C377.325 45.5406 378.683 46.7688 380.057 47.9908C381.289 49.0829 382.55 50.139 383.773 51.2472C384.384 51.8013 384.979 52.3728 385.579 52.9385C386.06 53.3928 386.536 53.853 387.047 54.2714C387.83 54.9117 388.726 55.4141 389.63 55.8665C390.608 56.3565 391.876 55.998 392.551 55.17C392.973 54.6579 393.172 53.9806 393.102 53.3183C393.053 53.1122 393.004 52.906 392.953 52.7033C392.798 52.296 392.551 51.9545 392.214 51.6754C392.027 51.4945 391.787 51.3613 391.528 51.2673C391.295 51.151 391.067 51.0289 390.84 50.9033C389.854 50.231 389.01 49.3736 388.148 48.5518C387.529 47.9616 386.901 47.3763 386.255 46.8152C384.915 45.6489 383.569 44.4918 382.247 43.3046C381.473 42.6109 380.708 41.9124 379.962 41.1895C379.373 40.6201 378.803 40.0298 378.238 39.4337C378.12 39.3076 378.006 39.1791 377.889 39.0496C378.061 38.9374 378.23 38.8242 378.4 38.7075C379.109 38.2231 379.816 37.7308 380.493 37.1997C380.748 37.0003 381.008 36.7985 381.264 36.5958C382.08 36.8487 382.871 37.109 383.656 37.3865ZM372.042 29.8466C372.094 29.6526 372.146 29.4585 372.199 29.2611L372.198 29.2645C372.144 29.4654 372.092 29.6594 372.042 29.8466Z" fill="#49B577"/>
<path d="M373.778 167.664C373.706 168.262 373.395 168.811 372.923 169.182C372.432 169.567 371.858 169.691 371.249 169.649C370.83 169.616 370.424 169.478 370.027 169.356C369.87 169.307 369.713 169.251 369.559 169.198C368.861 168.949 368.193 168.64 367.528 168.321C366.765 167.959 366.001 167.604 365.238 167.249C364.521 166.914 363.797 166.592 363.069 166.28C362.381 165.984 361.68 165.708 361.009 165.373C359.548 164.643 358.116 163.858 356.622 163.194C355.853 162.852 355.083 162.507 354.297 162.201C353.946 162.063 353.596 161.928 353.245 161.79C353.219 161.784 353.196 161.774 353.173 161.764C353.14 162.408 353.101 163.056 353.035 163.697C352.881 165.215 352.587 166.724 352.338 168.226C352.203 169.041 352.102 169.852 352.01 170.671C351.922 171.476 351.908 172.294 351.872 173.103C351.84 173.856 351.791 174.605 351.728 175.354C351.676 175.985 351.633 176.616 351.532 177.241C351.42 177.928 351.293 178.628 351.031 179.272C350.857 179.699 350.559 180.252 350.156 180.518C349.773 180.768 349.494 180.945 349.032 181.014C348.528 181.09 348.292 181.004 347.814 180.863C347.447 180.708 347.139 180.472 346.893 180.16C346.792 179.992 346.693 179.824 346.595 179.657C346.549 179.545 346.51 179.433 346.48 179.318C346.215 179.088 346.012 178.812 345.868 178.487C345.815 178.296 345.763 178.109 345.707 177.918C345.629 177.593 345.615 177.241 345.557 176.909C345.494 176.564 345.429 176.222 345.36 175.877C345.229 175.2 345.095 174.523 344.967 173.843C344.692 172.35 344.361 170.871 344.027 169.392C343.673 167.825 343.332 166.257 343.034 164.679C342.89 163.92 342.762 163.154 342.585 162.402C342.523 162.132 342.458 161.863 342.392 161.593C342.333 161.619 342.274 161.649 342.212 161.679C341.514 162.024 340.816 162.362 340.102 162.671C338.549 163.345 336.944 163.89 335.362 164.482C333.934 165.018 332.541 165.652 331.153 166.28C330.324 166.655 329.492 167.019 328.653 167.371C327.778 167.733 326.884 168.045 325.993 168.364C325.403 168.574 324.82 168.623 324.231 168.377C323.684 168.153 323.241 167.713 323.009 167.171C322.77 166.612 322.763 165.964 322.996 165.402C323.209 164.886 323.661 164.37 324.195 164.18C324.45 164.088 324.702 163.999 324.955 163.907C325.77 163.604 326.579 163.302 327.382 162.967C328.152 162.645 328.909 162.296 329.669 161.955C331.11 161.301 332.561 160.673 334.045 160.117C334.848 159.818 335.65 159.522 336.456 159.23C337.216 158.954 337.96 158.638 338.7 158.316C339.434 157.997 340.151 157.626 340.869 157.271C340.96 157.228 341.049 157.182 341.137 157.14C340.571 156.712 339.997 156.288 339.411 155.887C338.215 155.072 336.951 154.359 335.699 153.633C335.241 153.38 334.785 153.127 334.324 152.877C332.876 152.098 331.431 151.309 329.996 150.5C329.518 150.234 329.033 149.975 328.568 149.685C328.152 149.426 327.736 149.166 327.32 148.906C326.488 148.387 325.665 147.845 324.843 147.303C324.368 146.99 324.054 146.372 323.975 145.824C323.916 145.409 323.965 145.008 324.123 144.624C324.345 144.075 324.781 143.631 325.321 143.398C325.61 143.273 325.908 143.214 326.213 143.214C326.308 143.214 326.403 143.217 326.498 143.23C326.904 143.283 327.271 143.431 327.598 143.681C328.81 144.476 330.035 145.255 331.264 146.027C332.237 146.566 333.216 147.099 334.189 147.638C335.487 148.361 336.807 149.044 338.088 149.797C339.496 150.622 340.928 151.421 342.277 152.341C342.556 152.532 342.831 152.729 343.106 152.929C343.109 152.66 343.116 152.39 343.116 152.121C343.126 150.928 343.129 149.735 343.126 148.542C343.119 145.268 343.129 141.995 343.1 138.724L343.09 137.926C343.09 137.896 343.09 137.87 343.087 137.843V137.83C343.057 137.63 343.057 137.426 343.08 137.229C343.08 137.157 343.08 137.084 343.077 137.012C343.077 136.874 343.077 136.733 343.073 136.595V136.558C343.057 136.453 343.05 136.348 343.05 136.24C343.05 136.148 343.054 136.059 343.067 135.967C343.067 135.963 343.067 135.963 343.067 135.96C343.067 135.898 343.067 135.835 343.064 135.77C343.064 135.503 343.06 135.237 343.057 134.971C343.057 134.609 343.054 134.251 343.054 133.89C343.054 133.702 343.05 133.512 343.047 133.318C343.001 132.946 342.965 132.572 342.949 132.19C342.893 131.78 342.939 131.379 343.096 130.991C343.25 130.619 343.486 130.31 343.797 130.064C344.115 129.817 344.469 129.666 344.865 129.604C345.068 129.604 345.272 129.6 345.475 129.597C345.563 129.61 345.652 129.627 345.737 129.646C346.274 129.748 346.762 130.047 347.099 130.481C347.345 130.797 347.496 131.152 347.555 131.549C347.558 131.753 347.561 131.957 347.565 132.161C347.558 132.351 347.555 132.542 347.552 132.733C347.784 134.524 348.321 136.269 348.747 138.024C349.094 139.451 349.396 140.884 349.664 142.33C349.946 143.852 350.162 145.383 350.48 146.898C350.664 147.779 350.863 148.653 351.08 149.528C351.23 150.142 351.401 150.75 351.568 151.362C351.637 151.592 351.709 151.822 351.781 152.052C352.226 151.556 352.678 151.079 353.14 150.599C353.481 150.247 353.815 149.876 354.172 149.544C354.47 149.261 354.772 148.982 355.07 148.703C355.581 148.223 356.095 147.756 356.622 147.293C357.884 146.188 359.178 145.123 360.472 144.062C361.078 143.566 361.68 143.063 362.286 142.566C362.591 142.32 362.892 142.07 363.194 141.82C363.338 141.695 363.489 141.574 363.636 141.449C363.882 141.107 364.252 140.828 364.606 140.673C365.166 140.433 365.811 140.427 366.371 140.66C366.915 140.884 367.357 141.324 367.59 141.866C367.754 142.241 367.81 142.635 367.76 143.043C367.708 143.24 367.656 143.437 367.606 143.635C367.423 144.22 366.889 144.647 366.437 145.028C366.224 145.212 366.008 145.393 365.792 145.574C365.307 145.975 364.819 146.376 364.331 146.773C363.037 147.832 361.749 148.9 360.465 149.968C359.263 150.97 358.126 152.049 356.983 153.117C356.583 153.521 356.18 153.925 355.803 154.349L354.162 156.203C354.021 156.361 353.887 156.522 353.74 156.673C353.641 156.775 353.54 156.88 353.438 156.988C353.55 157.025 353.658 157.064 353.769 157.103C354.015 157.199 354.264 157.297 354.513 157.396C355.309 157.711 356.108 158.02 356.904 158.346C357.625 158.642 358.336 158.974 359.043 159.299C360.527 159.986 361.942 160.804 363.43 161.475C364.121 161.787 364.822 162.066 365.513 162.375C366.263 162.711 367.013 163.056 367.76 163.404C369.038 163.999 370.306 164.676 371.652 165.11C371.701 165.116 371.75 165.123 371.8 165.126C372.386 165.169 372.959 165.531 373.313 165.984C373.683 166.457 373.85 167.065 373.778 167.664Z" fill="#49B577"/>
<path d="M338.723 114.718C338.566 114.751 338.409 114.791 338.251 114.83C338.022 114.715 337.776 114.643 337.514 114.61C336.902 114.61 337.092 114.577 336.754 114.649C336.463 114.712 336.175 114.807 335.893 114.899C335.595 114.994 335.31 115.136 335.021 115.257C334.868 115.323 334.707 115.379 334.553 115.441C333.937 115.678 333.325 115.918 332.709 116.155C331.028 116.802 329.361 117.472 327.765 118.314C324.955 119.799 322.432 121.735 319.848 123.573C319.012 124.167 318.177 124.766 317.345 125.361C316.539 125.936 315.763 126.547 314.98 127.152C313.466 128.319 311.986 129.521 310.528 130.754C310.154 131.069 309.778 131.388 309.404 131.704C309.06 131.996 308.746 132.332 308.418 132.644C307.019 133.978 305.611 135.309 304.461 136.874C303.173 138.626 302.26 140.601 301.427 142.599C301.034 143.546 300.625 144.489 300.245 145.442C299.819 146.517 299.393 147.588 298.967 148.663C298.607 149.567 298.289 150.491 297.952 151.404C297.185 153.485 296.612 155.637 296.219 157.82C295.996 159.065 295.875 160.328 295.731 161.586C295.619 162.543 295.567 163.509 295.485 164.472C295.246 167.308 295.351 170.171 295.849 172.971C296.127 174.533 296.491 176.074 296.926 177.596C297.224 178.628 297.552 179.663 297.952 180.659C298.191 181.257 298.43 181.855 298.669 182.454C298.797 182.776 298.915 183.101 299.066 183.417C299.662 184.665 300.242 185.921 300.923 187.127C301.69 188.481 302.528 189.789 303.442 191.045C303.819 191.561 304.199 192.077 304.602 192.573C305.129 193.227 305.729 193.816 306.325 194.407C307.288 195.357 308.379 196.143 309.542 196.82C310.741 197.516 311.979 198.141 313.276 198.634C314.246 199.002 315.216 199.37 316.189 199.738C317.165 200.106 318.157 200.425 319.14 200.77C320.1 201.105 321.07 201.418 322.033 201.74C322.95 202.049 323.884 202.302 324.807 202.578C325.833 202.884 326.868 203.14 327.906 203.4C328.771 203.617 329.633 203.833 330.504 204.014C331.179 204.156 331.854 204.294 332.529 204.435C332.804 204.491 333.076 204.553 333.357 204.589C333.996 204.675 334.635 204.764 335.274 204.849C335.67 204.902 336.076 204.98 336.476 205.01C337.534 205.086 338.592 205.158 339.65 205.234C340.676 205.306 341.708 205.319 342.733 205.362C345.406 205.473 348.105 205.395 350.752 204.984C352.954 204.642 355.116 204.054 357.209 203.291C357.812 203.071 358.418 202.851 359.024 202.627C359.338 202.512 359.646 202.368 359.954 202.233C360.842 201.845 361.736 201.474 362.601 201.036C363.476 200.593 364.36 200.165 365.222 199.696C366.48 199.009 367.744 198.328 368.992 197.622C371.371 196.277 373.569 194.673 375.61 192.853C376.546 192.015 377.496 191.193 378.394 190.315C378.957 189.763 379.511 189.201 380.025 188.603C380.477 188.077 380.894 187.522 381.293 186.96C382.197 185.691 382.993 184.337 383.714 182.953C384.379 181.678 384.959 180.357 385.552 179.045C386.446 177.073 387.098 174.993 387.583 172.883C387.973 171.193 388.389 169.507 388.641 167.788C388.775 166.862 388.877 165.928 388.916 164.991C388.946 164.318 388.972 163.647 389.001 162.973C389.044 161.987 389.024 160.998 389.024 160.009C389.024 159.111 389.008 158.214 388.959 157.317C388.88 155.848 388.667 154.412 388.372 152.972C388.127 151.769 387.822 150.583 387.537 149.389C387.308 148.426 387.013 147.48 386.747 146.527C386.082 144.137 385.214 141.807 384.065 139.608C383.269 138.083 382.348 136.634 381.444 135.171C380.926 134.336 380.386 133.515 379.855 132.687C379.357 131.914 378.853 131.142 378.315 130.392C377.939 129.867 377.542 129.354 377.136 128.851C376.605 128.194 376.016 127.595 375.413 127.004C374.443 126.054 373.356 125.255 372.219 124.522C371.728 124.207 371.217 123.914 370.715 123.615C369.677 123.001 368.629 122.409 367.58 121.814C366.748 121.344 365.893 120.907 365.048 120.46C364.652 120.25 364.226 120.089 363.816 119.905C363.449 119.74 363.086 119.569 362.709 119.428C361.697 119.053 360.685 118.692 359.663 118.343C358.811 118.054 357.953 117.772 357.111 117.453C356.557 117.242 356.003 117.035 355.45 116.825C354.362 116.414 353.225 116.102 352.089 115.855C350.792 115.579 349.465 115.435 348.164 115.172C346.582 114.853 345.006 114.498 343.391 114.396C342.998 114.373 342.602 114.36 342.209 114.36C341.026 114.36 339.863 114.472 338.723 114.718ZM341.979 118.892C343.191 118.905 344.397 119.05 345.586 119.29C346.245 119.421 346.906 119.556 347.565 119.688C349.042 119.987 350.549 120.141 352.013 120.493C352.734 120.697 353.438 120.937 354.139 121.203C354.575 121.367 355.011 121.541 355.453 121.696C356.436 122.041 357.419 122.386 358.408 122.721C359.345 123.04 360.269 123.382 361.199 123.724C361.658 123.891 362.103 124.128 362.552 124.329C362.893 124.48 363.23 124.631 363.558 124.805C364.226 125.16 364.904 125.499 365.562 125.87C366.168 126.212 366.771 126.554 367.377 126.895C367.941 127.231 368.504 127.563 369.068 127.898C370.332 128.647 371.511 129.538 372.576 130.553C374.365 132.404 375.718 134.629 377.107 136.785C377.755 137.791 378.381 138.813 379.01 139.832C379.675 140.989 380.297 142.165 380.838 143.391C381.414 144.699 381.883 146.047 382.309 147.411C382.62 148.522 382.934 149.629 383.203 150.75C383.393 151.539 383.596 152.328 383.763 153.123C383.979 154.158 384.189 155.197 384.314 156.252C384.428 157.218 384.474 158.191 384.51 159.164C384.51 160.002 384.507 160.837 384.507 161.675C384.507 162.553 384.441 163.43 384.405 164.308C384.376 164.998 384.314 165.685 384.235 166.372C384.087 167.683 383.819 168.972 383.544 170.26C383.37 171.072 383.17 171.88 382.984 172.692C382.672 173.816 382.315 174.924 381.883 176.012C381.637 176.636 381.368 177.247 381.093 177.859C380.458 179.259 379.826 180.662 379.079 182.007C378.109 183.656 377.012 185.237 375.691 186.624C374.804 187.502 373.863 188.32 372.933 189.152C371.24 190.664 369.454 192.067 367.518 193.25C366.25 193.99 364.95 194.677 363.659 195.38C362.807 195.843 361.943 196.274 361.078 196.711C360.76 196.872 360.446 197.05 360.118 197.194C359.564 197.434 359.011 197.677 358.457 197.917C358.087 198.078 357.72 198.266 357.34 198.404C356.803 198.601 356.265 198.795 355.728 198.992C354.994 199.262 354.264 199.515 353.517 199.738C350.893 200.455 348.2 200.816 345.485 200.879C343.077 200.889 340.666 200.751 338.265 200.58C337.849 200.55 337.419 200.547 337.003 200.491C336.496 200.422 335.988 200.353 335.483 200.287C334.91 200.208 334.334 200.133 333.76 200.054C333.436 200.011 333.115 199.926 332.794 199.86C331.86 199.666 330.917 199.498 329.993 199.268C329.059 199.035 328.126 198.802 327.195 198.568C326.209 198.276 325.223 197.98 324.237 197.687C323.307 197.411 322.393 197.076 321.469 196.767C319.658 196.159 317.866 195.515 316.08 194.838C314.705 194.315 313.335 193.77 312.045 193.06C311.013 192.435 310.056 191.725 309.181 190.894C308.464 190.148 307.825 189.346 307.209 188.511C306.518 187.568 305.86 186.608 305.25 185.609C304.788 184.807 304.363 183.992 303.963 183.154C303.77 182.749 303.576 182.345 303.383 181.941C303.305 181.78 303.219 181.619 303.151 181.451C302.866 180.741 302.581 180.028 302.296 179.318C301.87 178.253 301.493 177.165 301.165 176.064C300.422 173.34 299.937 170.533 299.865 167.706C299.871 166.569 299.95 165.432 300.045 164.298C300.104 163.608 300.14 162.911 300.222 162.221C300.314 161.442 300.405 160.66 300.497 159.881C300.648 158.602 300.897 157.337 301.208 156.091C301.424 155.279 301.663 154.464 301.952 153.679C302.174 153.077 302.397 152.476 302.617 151.874C302.921 151.046 303.236 150.228 303.56 149.406C304.313 147.509 305.09 145.623 305.873 143.74C306.253 142.829 306.662 141.919 307.137 141.051C307.54 140.384 307.982 139.743 308.461 139.125C308.939 138.504 309.476 137.935 310.023 137.373C310.744 136.686 311.461 136.003 312.182 135.316C312.477 135.037 312.808 134.787 313.119 134.524C313.604 134.113 314.089 133.702 314.577 133.291C315.337 132.65 316.13 132.046 316.906 131.428C317.663 130.826 318.432 130.241 319.199 129.653C320.457 128.683 321.774 127.786 323.071 126.866C324.847 125.604 326.586 124.269 328.444 123.132C328.879 122.879 329.321 122.636 329.77 122.406C330.334 122.662 330.995 122.695 331.588 122.426C332.836 121.854 334.081 121.278 335.336 120.726C336.515 120.21 337.714 119.727 338.946 119.349C339.939 119.08 340.954 118.932 341.979 118.892Z" fill="#49B577"/>
<path d="M182.739 133.42C182.706 133.687 182.566 133.931 182.354 134.097C182.133 134.269 181.875 134.324 181.6 134.305C181.412 134.291 181.229 134.229 181.05 134.175C180.98 134.153 180.909 134.128 180.84 134.104C180.526 133.993 180.225 133.855 179.925 133.713C179.582 133.552 179.238 133.394 178.895 133.235C178.572 133.086 178.246 132.942 177.919 132.803C177.609 132.671 177.294 132.548 176.991 132.398C176.334 132.073 175.689 131.723 175.017 131.427C174.671 131.274 174.324 131.12 173.97 130.984C173.813 130.923 173.655 130.863 173.497 130.801C173.485 130.798 173.475 130.794 173.465 130.789C173.45 131.076 173.432 131.365 173.403 131.651C173.333 132.328 173.201 133.001 173.089 133.671C173.028 134.034 172.982 134.396 172.941 134.761C172.901 135.12 172.895 135.485 172.879 135.846C172.865 136.181 172.842 136.515 172.814 136.849C172.791 137.131 172.772 137.412 172.726 137.691C172.676 137.997 172.618 138.309 172.5 138.596C172.422 138.787 172.288 139.033 172.107 139.152C171.934 139.263 171.809 139.342 171.601 139.373C171.374 139.407 171.268 139.369 171.052 139.306C170.887 139.237 170.749 139.131 170.638 138.992C170.592 138.917 170.548 138.843 170.504 138.768C170.483 138.718 170.466 138.668 170.452 138.617C170.333 138.514 170.242 138.391 170.177 138.246C170.153 138.161 170.13 138.078 170.104 137.993C170.069 137.848 170.063 137.691 170.037 137.543C170.009 137.389 169.979 137.236 169.948 137.083C169.889 136.781 169.829 136.479 169.771 136.175C169.647 135.51 169.498 134.85 169.348 134.191C169.189 133.492 169.035 132.793 168.901 132.089C168.836 131.751 168.779 131.409 168.699 131.074C168.671 130.953 168.642 130.833 168.612 130.713C168.586 130.725 168.559 130.738 168.531 130.751C168.217 130.905 167.903 131.056 167.582 131.194C166.883 131.494 166.16 131.737 165.448 132.001C164.805 132.24 164.179 132.523 163.554 132.803C163.181 132.97 162.806 133.133 162.429 133.29C162.035 133.451 161.632 133.59 161.231 133.732C160.966 133.826 160.704 133.848 160.438 133.738C160.192 133.638 159.993 133.442 159.888 133.2C159.781 132.951 159.778 132.662 159.882 132.412C159.978 132.182 160.182 131.951 160.422 131.866C160.537 131.825 160.651 131.786 160.764 131.745C161.131 131.61 161.495 131.475 161.857 131.326C162.203 131.182 162.544 131.027 162.886 130.874C163.534 130.583 164.188 130.303 164.856 130.055C165.217 129.922 165.578 129.79 165.941 129.659C166.283 129.536 166.617 129.395 166.951 129.252C167.281 129.11 167.604 128.944 167.927 128.786C167.968 128.767 168.008 128.746 168.048 128.727C167.793 128.537 167.535 128.348 167.271 128.169C166.732 127.805 166.163 127.487 165.6 127.163C165.394 127.05 165.189 126.938 164.981 126.826C164.329 126.479 163.679 126.127 163.033 125.767C162.818 125.648 162.6 125.532 162.39 125.403C162.203 125.287 162.016 125.172 161.829 125.056C161.454 124.824 161.084 124.582 160.714 124.341C160.5 124.201 160.359 123.926 160.323 123.681C160.297 123.496 160.319 123.318 160.39 123.146C160.49 122.901 160.686 122.704 160.929 122.599C161.059 122.544 161.193 122.517 161.33 122.517C161.373 122.517 161.416 122.519 161.459 122.525C161.641 122.548 161.806 122.614 161.954 122.726C162.499 123.08 163.051 123.428 163.604 123.772C164.042 124.012 164.483 124.25 164.92 124.49C165.504 124.813 166.098 125.117 166.675 125.453C167.309 125.821 167.953 126.177 168.561 126.587C168.686 126.672 168.81 126.76 168.934 126.85C168.935 126.73 168.938 126.609 168.938 126.489C168.943 125.957 168.944 125.425 168.943 124.893C168.94 123.433 168.944 121.974 168.931 120.515L168.926 120.159C168.926 120.146 168.926 120.134 168.925 120.123V120.117C168.912 120.027 168.912 119.936 168.922 119.849C168.922 119.816 168.922 119.784 168.92 119.752C168.92 119.69 168.92 119.627 168.919 119.566V119.55C168.912 119.503 168.909 119.456 168.909 119.407C168.909 119.366 168.91 119.327 168.916 119.286C168.916 119.284 168.916 119.284 168.916 119.283C168.916 119.255 168.916 119.227 168.915 119.198C168.915 119.079 168.913 118.96 168.912 118.842C168.912 118.68 168.91 118.521 168.91 118.36C168.91 118.276 168.909 118.191 168.907 118.104C168.887 117.939 168.87 117.772 168.863 117.602C168.838 117.419 168.859 117.24 168.929 117.067C168.999 116.901 169.105 116.763 169.245 116.654C169.388 116.544 169.547 116.476 169.726 116.448C169.817 116.448 169.908 116.447 170 116.445C170.04 116.451 170.079 116.459 170.118 116.467C170.36 116.513 170.579 116.646 170.731 116.84C170.842 116.98 170.909 117.139 170.936 117.316C170.937 117.407 170.939 117.498 170.94 117.589C170.937 117.674 170.936 117.759 170.935 117.844C171.039 118.642 171.281 119.421 171.473 120.203C171.629 120.839 171.765 121.478 171.886 122.123C172.012 122.802 172.11 123.485 172.253 124.16C172.335 124.553 172.425 124.943 172.522 125.333C172.59 125.607 172.667 125.878 172.742 126.151C172.773 126.253 172.806 126.356 172.838 126.458C173.039 126.237 173.242 126.025 173.45 125.811C173.603 125.654 173.754 125.488 173.914 125.34C174.048 125.214 174.184 125.09 174.318 124.965C174.548 124.751 174.78 124.543 175.017 124.336C175.585 123.844 176.167 123.369 176.75 122.896C177.022 122.674 177.294 122.45 177.566 122.229C177.704 122.119 177.839 122.007 177.975 121.896C178.04 121.84 178.108 121.786 178.174 121.73C178.284 121.578 178.451 121.453 178.61 121.384C178.862 121.278 179.153 121.275 179.405 121.379C179.65 121.478 179.849 121.675 179.953 121.917C180.027 122.084 180.052 122.259 180.03 122.441C180.007 122.529 179.983 122.617 179.961 122.705C179.878 122.966 179.638 123.156 179.434 123.326C179.339 123.408 179.241 123.489 179.144 123.57C178.926 123.749 178.706 123.927 178.486 124.105C177.904 124.577 177.325 125.053 176.747 125.529C176.206 125.976 175.694 126.457 175.179 126.933C174.999 127.114 174.818 127.294 174.649 127.483L173.91 128.309C173.846 128.38 173.786 128.452 173.72 128.519C173.675 128.564 173.63 128.611 173.584 128.66C173.634 128.676 173.683 128.693 173.733 128.711C173.844 128.754 173.956 128.797 174.068 128.841C174.426 128.982 174.786 129.12 175.144 129.265C175.468 129.397 175.788 129.545 176.107 129.69C176.775 129.996 177.412 130.361 178.081 130.66C178.392 130.799 178.708 130.924 179.019 131.062C179.356 131.211 179.694 131.365 180.03 131.521C180.605 131.786 181.176 132.088 181.782 132.281C181.804 132.284 181.826 132.287 181.848 132.289C182.112 132.308 182.37 132.469 182.529 132.671C182.696 132.882 182.771 133.153 182.739 133.42Z" fill="#49B577"/>
<path d="M76.7706 203.983C76.58 204.172 76.3185 204.278 76.0493 204.277C75.7694 204.274 75.5323 204.158 75.3287 203.974C75.1895 203.845 75.084 203.684 74.9774 203.531C74.9354 203.47 74.8952 203.407 74.8553 203.345C74.6775 203.063 74.5265 202.769 74.3794 202.472C74.2093 202.133 74.0374 201.796 73.8655 201.459C73.7043 201.142 73.5373 200.827 73.3663 200.515C73.2047 200.22 73.033 199.928 72.8881 199.624C72.5729 198.961 72.2836 198.287 71.9386 197.639C71.7608 197.305 71.5838 196.969 71.3902 196.643C71.3044 196.497 71.2176 196.353 71.1318 196.207C71.1243 196.197 71.119 196.187 71.1136 196.177C70.9242 196.394 70.7317 196.61 70.5316 196.816C70.0582 197.305 69.5377 197.751 69.0352 198.208C68.7628 198.456 68.5028 198.712 68.2446 198.973C67.9911 199.231 67.7606 199.514 67.5248 199.787C67.3055 200.041 67.0814 200.29 66.8526 200.535C66.6599 200.742 66.4707 200.951 66.2625 201.141C66.0335 201.351 65.7952 201.561 65.5248 201.713C65.3455 201.815 65.0877 201.925 64.8718 201.906C64.6674 201.887 64.5199 201.871 64.3376 201.767C64.1384 201.653 64.0786 201.557 63.9485 201.375C63.8614 201.218 63.8178 201.05 63.8171 200.872C63.8275 200.785 63.839 200.699 63.8505 200.613C63.8651 200.561 63.882 200.511 63.9034 200.462C63.873 200.308 63.8774 200.154 63.9162 200C63.9503 199.919 63.9835 199.839 64.0164 199.756C64.0784 199.62 64.1708 199.494 64.2416 199.361C64.3148 199.223 64.3859 199.085 64.4568 198.945C64.5974 198.671 64.7367 198.396 64.8793 198.123C65.1937 197.523 65.4849 196.913 65.7749 196.302C66.0824 195.654 66.3946 195.01 66.7245 194.375C66.8831 194.068 67.0492 193.765 67.1944 193.452C67.2467 193.34 67.2979 193.227 67.3492 193.115C67.3211 193.107 67.292 193.101 67.2619 193.094C66.92 193.021 66.5798 192.945 66.2421 192.854C65.5072 192.658 64.7891 192.402 64.0665 192.169C63.4137 191.958 62.7464 191.793 62.0821 191.626C61.6857 191.526 61.2908 191.422 60.8973 191.312C60.4883 191.195 60.086 191.055 59.683 190.919C59.4164 190.828 59.1967 190.683 59.0562 190.432C58.9245 190.202 58.8897 189.924 58.9571 189.67C59.0267 189.407 59.2031 189.179 59.4404 189.047C59.6581 188.925 59.9603 188.87 60.2017 188.952C60.3174 188.991 60.4311 189.03 60.5456 189.068C60.9175 189.19 61.287 189.309 61.6632 189.415C62.0243 189.517 62.388 189.606 62.751 189.698C63.4411 189.87 64.1274 190.054 64.8053 190.273C65.1716 190.392 65.537 190.512 65.9026 190.634C66.2475 190.749 66.5975 190.845 66.9481 190.939C67.2955 191.031 67.6517 191.101 68.0032 191.176C68.0475 191.187 68.0914 191.196 68.1345 191.205C68.052 190.898 67.9663 190.59 67.8697 190.286C67.6719 189.667 67.4216 189.065 67.1796 188.462C67.0873 188.246 66.9962 188.03 66.9018 187.814C66.6048 187.138 66.3117 186.459 66.0276 185.777C65.9319 185.55 65.8322 185.324 65.7475 185.093C65.6721 184.886 65.5966 184.68 65.5212 184.473C65.3703 184.059 65.2293 183.64 65.0882 183.221C65.0064 182.98 65.0657 182.675 65.1894 182.461C65.2828 182.3 65.4109 182.173 65.5726 182.082C65.8028 181.952 66.0793 181.918 66.3348 181.987C66.4711 182.023 66.5929 182.086 66.7006 182.17C66.7342 182.197 66.7668 182.224 66.7968 182.256C66.9259 182.387 67.0148 182.541 67.0617 182.72C67.2707 183.336 67.489 183.95 67.7101 184.563C67.9054 185.023 68.1047 185.482 68.3 185.942C68.5591 186.556 68.8372 187.163 69.0824 187.784C69.3527 188.465 69.6385 189.144 69.8617 189.842C69.9075 189.986 69.9504 190.132 69.9924 190.279C70.0679 190.185 70.1446 190.093 70.219 189.998C70.5517 189.583 70.882 189.166 71.2101 188.747C72.1111 187.599 73.0179 186.455 73.9099 185.301L74.1268 185.019C74.135 185.008 74.1422 184.999 74.1483 184.989L74.152 184.984C74.1969 184.906 74.2531 184.835 74.3156 184.772C74.3356 184.747 74.3555 184.721 74.3743 184.695C74.4124 184.647 74.4514 184.597 74.4884 184.548L74.4983 184.535C74.5216 184.494 74.5483 184.455 74.5782 184.417C74.6036 184.385 74.6292 184.355 74.6593 184.326C74.6602 184.325 74.6602 184.325 74.6611 184.324C74.6783 184.302 74.6955 184.28 74.7125 184.256C74.786 184.163 74.8583 184.069 74.9306 183.975C75.0304 183.848 75.1281 183.722 75.2278 183.595C75.2795 183.529 75.331 183.462 75.3833 183.393C75.4696 183.25 75.5602 183.109 75.6597 182.971C75.7533 182.811 75.8802 182.683 76.0428 182.591C76.1997 182.504 76.3684 182.462 76.5464 182.462C76.7268 182.464 76.8936 182.51 77.051 182.598C77.1228 182.655 77.1955 182.71 77.2682 182.766C77.2959 182.795 77.3226 182.825 77.3473 182.856C77.5091 183.041 77.5991 183.282 77.5987 183.528C77.5985 183.707 77.5538 183.873 77.4649 184.029C77.4099 184.101 77.3548 184.173 77.2997 184.246C77.2448 184.311 77.191 184.377 77.1373 184.442C76.7252 185.135 76.4336 185.896 76.0998 186.629C75.829 187.225 75.5401 187.811 75.236 188.393C74.9157 189.004 74.5695 189.601 74.2637 190.22C74.0855 190.58 73.9149 190.942 73.7501 191.308C73.6338 191.565 73.5262 191.826 73.4166 192.086C73.3774 192.186 73.3394 192.287 73.3014 192.387C73.5959 192.338 73.8872 192.297 74.1829 192.257C74.4004 192.229 74.621 192.192 74.8389 192.175C75.0223 192.159 75.2059 192.145 75.3884 192.13C75.7015 192.105 76.0121 192.084 76.3265 192.069C77.0771 192.033 77.8284 192.021 78.5789 192.009C78.9301 192.004 79.282 191.996 79.6332 191.991C79.8089 191.99 79.9844 191.986 80.1599 191.982C80.2453 191.979 80.3321 191.978 80.4187 191.976C80.5999 191.924 80.8079 191.929 80.9756 191.974C81.2398 192.046 81.4698 192.223 81.6035 192.461C81.734 192.691 81.7689 192.968 81.7014 193.223C81.656 193.4 81.5668 193.554 81.437 193.683C81.364 193.737 81.2911 193.792 81.2193 193.847C80.993 194.001 80.6863 194.002 80.4213 194.009C80.2952 194.015 80.1689 194.018 80.0426 194.021C79.7605 194.026 79.4773 194.031 79.195 194.034C78.4455 194.044 77.6955 194.06 76.9468 194.076C76.2451 194.093 75.5457 194.154 74.8467 194.209C74.5939 194.24 74.3399 194.269 74.0897 194.313L72.9979 194.505C72.9046 194.521 72.8127 194.54 72.7188 194.552C72.656 194.56 72.591 194.569 72.5252 194.578C72.5546 194.622 72.5819 194.666 72.6104 194.711C72.671 194.813 72.7318 194.917 72.7926 195.02C72.987 195.353 73.1843 195.683 73.376 196.019C73.5492 196.324 73.7089 196.638 73.8693 196.949C74.2044 197.603 74.4789 198.284 74.8197 198.933C74.9779 199.235 75.1486 199.528 75.3078 199.828C75.4805 200.155 75.6505 200.485 75.8184 200.815C76.1059 201.379 76.3673 201.969 76.7236 202.496C76.7392 202.512 76.7547 202.528 76.7712 202.543C76.9667 202.721 77.0696 203.008 77.0696 203.265C77.0698 203.534 76.9611 203.793 76.7706 203.983Z" fill="#49B577"/>
<path d="M116.011 194.395C115.729 194.075 115.586 193.652 115.612 193.228C115.64 192.788 115.844 192.426 116.154 192.125C116.368 191.919 116.633 191.769 116.884 191.617C116.984 191.557 117.087 191.501 117.187 191.444C117.648 191.193 118.126 190.986 118.607 190.785C119.158 190.552 119.704 190.316 120.251 190.08C120.766 189.859 121.277 189.629 121.784 189.392C122.265 189.168 122.74 188.928 123.234 188.731C124.307 188.303 125.396 187.917 126.45 187.441C126.993 187.195 127.538 186.951 128.069 186.68C128.307 186.56 128.543 186.438 128.781 186.318C128.797 186.307 128.813 186.3 128.829 186.293C128.505 185.972 128.181 185.646 127.874 185.31C127.144 184.514 126.487 183.647 125.811 182.809C125.443 182.354 125.063 181.918 124.674 181.484C124.29 181.058 123.864 180.666 123.454 180.266C123.072 179.895 122.7 179.516 122.333 179.13C122.025 178.805 121.712 178.485 121.43 178.138C121.119 177.756 120.81 177.358 120.593 176.917C120.449 176.624 120.298 176.206 120.347 175.868C120.396 175.548 120.433 175.318 120.614 175.041C120.812 174.739 120.968 174.655 121.268 174.469C121.522 174.348 121.792 174.297 122.073 174.314C122.209 174.339 122.344 174.366 122.479 174.393C122.559 174.422 122.637 174.454 122.712 174.492C122.958 174.461 123.199 174.483 123.439 174.56C123.564 174.623 123.688 174.683 123.815 174.743C124.024 174.855 124.216 175.014 124.419 175.139C124.63 175.269 124.842 175.395 125.056 175.521C125.475 175.771 125.896 176.019 126.316 176.272C127.233 176.829 128.17 177.351 129.108 177.871C130.103 178.422 131.091 178.981 132.064 179.566C132.533 179.847 132.998 180.141 133.478 180.402C133.65 180.496 133.823 180.588 133.996 180.68C134.01 180.637 134.022 180.592 134.036 180.545C134.182 180.014 134.332 179.486 134.505 178.964C134.881 177.826 135.348 176.722 135.781 175.608C136.171 174.601 136.491 173.567 136.814 172.538C137.007 171.924 137.206 171.313 137.415 170.705C137.636 170.073 137.892 169.453 138.143 168.833C138.31 168.422 138.559 168.091 138.966 167.896C139.342 167.712 139.783 167.686 140.179 167.819C140.586 167.956 140.931 168.257 141.119 168.645C141.291 169 141.35 169.482 141.2 169.853C141.128 170.032 141.056 170.207 140.986 170.383C140.761 170.956 140.54 171.526 140.339 172.108C140.147 172.666 139.974 173.229 139.797 173.792C139.463 174.861 139.112 175.923 138.706 176.968C138.486 177.532 138.264 178.095 138.039 178.659C137.827 179.19 137.644 179.731 137.465 180.274C137.288 180.812 137.146 181.365 136.996 181.911C136.975 181.98 136.958 182.048 136.939 182.115C137.431 182.017 137.925 181.914 138.413 181.793C139.406 181.545 140.378 181.214 141.351 180.895C141.701 180.772 142.049 180.651 142.398 180.524C143.491 180.127 144.588 179.735 145.691 179.358C146.057 179.231 146.422 179.097 146.794 178.988C147.127 178.891 147.46 178.793 147.793 178.696C148.459 178.501 149.132 178.322 149.806 178.143C150.194 178.039 150.669 178.164 150.996 178.381C151.242 178.545 151.431 178.76 151.56 179.024C151.745 179.4 151.774 179.839 151.642 180.235C151.573 180.446 151.463 180.631 151.32 180.792C151.275 180.842 151.229 180.89 151.177 180.934C150.958 181.124 150.707 181.248 150.421 181.304C149.43 181.569 148.442 181.849 147.456 182.134C146.713 182.394 145.971 182.661 145.228 182.92C144.235 183.265 143.252 183.64 142.252 183.962C141.153 184.317 140.057 184.697 138.936 184.977C138.704 185.034 138.47 185.086 138.235 185.137C138.375 185.266 138.515 185.396 138.657 185.523C139.282 186.09 139.911 186.654 140.542 187.214C142.274 188.752 143.998 190.298 145.739 191.823L146.165 192.194C146.181 192.208 146.194 192.22 146.21 192.231L146.217 192.237C146.337 192.316 146.444 192.412 146.537 192.517C146.576 192.551 146.614 192.585 146.654 192.617C146.726 192.682 146.801 192.749 146.875 192.812L146.895 192.829C146.958 192.87 147.016 192.916 147.074 192.967C147.122 193.01 147.168 193.054 147.21 193.104C147.212 193.106 147.212 193.106 147.214 193.107C147.246 193.137 147.279 193.166 147.316 193.195C147.456 193.321 147.598 193.444 147.741 193.568C147.931 193.738 148.122 193.905 148.313 194.075C148.412 194.164 148.514 194.252 148.618 194.341C148.836 194.492 149.051 194.649 149.26 194.82C149.503 194.984 149.693 195.197 149.824 195.463C149.947 195.719 149.999 195.989 149.983 196.269C149.964 196.553 149.877 196.811 149.723 197.05C149.627 197.157 149.534 197.266 149.44 197.375C149.391 197.415 149.341 197.454 149.29 197.49C148.983 197.726 148.596 197.843 148.208 197.817C147.925 197.798 147.667 197.71 147.429 197.554C147.32 197.46 147.211 197.366 147.102 197.271C147.004 197.178 146.905 197.087 146.806 196.995C145.751 196.274 144.576 195.736 143.449 195.135C142.532 194.646 141.633 194.131 140.743 193.591C139.807 193.024 138.897 192.417 137.947 191.871C137.395 191.553 136.84 191.247 136.276 190.949C135.881 190.739 135.479 190.543 135.078 190.343C134.924 190.271 134.769 190.201 134.613 190.131C134.665 190.6 134.704 191.063 134.74 191.533C134.765 191.878 134.804 192.23 134.811 192.574C134.82 192.865 134.826 193.156 134.833 193.445C134.846 193.94 134.85 194.432 134.846 194.929C134.835 196.115 134.788 197.299 134.74 198.482C134.716 199.036 134.698 199.591 134.675 200.145C134.661 200.422 134.651 200.699 134.641 200.975C134.639 201.11 134.633 201.247 134.629 201.384C134.694 201.674 134.667 202.002 134.582 202.261C134.445 202.67 134.145 203.014 133.758 203.2C133.384 203.381 132.943 203.408 132.547 203.275C132.272 203.185 132.037 203.029 131.845 202.811C131.766 202.69 131.686 202.57 131.605 202.451C131.383 202.079 131.409 201.596 131.42 201.177C131.423 200.978 131.43 200.779 131.436 200.58C131.453 200.135 131.471 199.688 131.491 199.243C131.541 198.062 131.583 196.879 131.624 195.698C131.661 194.591 131.627 193.483 131.601 192.376C131.576 191.975 131.552 191.572 131.506 191.173L131.3 189.434C131.283 189.285 131.261 189.138 131.251 188.989C131.243 188.889 131.235 188.786 131.226 188.681C131.154 188.723 131.083 188.762 131.009 188.802C130.843 188.887 130.674 188.972 130.505 189.057C129.963 189.329 129.424 189.605 128.877 189.872C128.382 190.114 127.872 190.333 127.366 190.553C126.305 191.013 125.206 191.375 124.152 191.845C123.662 192.063 123.184 192.301 122.695 192.521C122.165 192.759 121.63 192.993 121.094 193.223C120.178 193.617 119.224 193.968 118.361 194.475C118.334 194.498 118.307 194.52 118.283 194.545C117.984 194.834 117.523 194.967 117.117 194.94C116.693 194.913 116.293 194.714 116.011 194.395Z" fill="#49B577"/>
<path d="M160.475 200.817C160.532 200.718 160.585 200.617 160.639 200.515C160.807 200.448 160.961 200.352 161.102 200.229C161.39 199.906 161.318 200.022 161.439 199.81C161.543 199.626 161.629 199.429 161.713 199.237C161.803 199.035 161.862 198.818 161.934 198.608C161.972 198.496 162.018 198.385 162.057 198.274C162.222 197.838 162.384 197.401 162.549 196.964C162.999 195.772 163.43 194.576 163.737 193.337C164.276 191.154 164.442 188.91 164.689 186.68C164.768 185.959 164.845 185.236 164.923 184.517C164.999 183.82 165.042 183.122 165.091 182.424C165.187 181.076 165.25 179.727 165.285 178.377C165.294 178.031 165.303 177.682 165.313 177.337C165.32 177.017 165.291 176.693 165.281 176.373C165.235 175.006 165.195 173.636 164.911 172.292C164.592 170.787 163.979 169.374 163.316 167.994C163.001 167.341 162.696 166.68 162.372 166.031C162.005 165.3 161.639 164.57 161.272 163.839C160.965 163.224 160.627 162.621 160.303 162.012C159.566 160.628 158.699 159.311 157.732 158.076C157.179 157.372 156.569 156.714 155.973 156.045C155.52 155.536 155.034 155.053 154.564 154.556C153.179 153.094 151.618 151.802 149.905 150.746C148.95 150.158 147.965 149.624 146.956 149.137C146.271 148.809 145.57 148.494 144.856 148.236C144.427 148.081 143.999 147.926 143.57 147.77C143.34 147.686 143.113 147.595 142.875 147.526C141.935 147.253 140.999 146.968 140.041 146.759C138.965 146.526 137.879 146.353 136.786 146.245C136.336 146.201 135.885 146.158 135.433 146.137C134.839 146.108 134.246 146.147 133.653 146.184C132.698 146.245 131.77 146.451 130.864 146.746C129.932 147.051 129.019 147.411 128.148 147.864C127.497 148.203 126.846 148.541 126.193 148.882C125.539 149.224 124.904 149.598 124.259 149.954C123.63 150.303 123.008 150.668 122.384 151.025C121.789 151.364 121.216 151.738 120.635 152.095C119.991 152.493 119.368 152.919 118.742 153.345C118.22 153.699 117.7 154.052 117.194 154.427C116.802 154.717 116.411 155.008 116.019 155.298C115.86 155.417 115.699 155.531 115.547 155.663C115.201 155.96 114.853 156.256 114.507 156.553C114.293 156.737 114.06 156.915 113.856 157.112C113.318 157.635 112.782 158.159 112.243 158.683C111.722 159.19 111.23 159.729 110.724 160.25C109.406 161.609 108.177 163.071 107.147 164.662C106.291 165.986 105.584 167.404 105.001 168.869C104.833 169.291 104.664 169.715 104.497 170.14C104.409 170.36 104.341 170.591 104.267 170.817C104.054 171.468 103.829 172.115 103.652 172.778C103.475 173.449 103.284 174.117 103.126 174.793C102.897 175.781 102.66 176.769 102.446 177.761C102.036 179.649 101.847 181.565 101.848 183.501C101.849 184.39 101.836 185.278 101.876 186.166C101.903 186.723 101.939 187.28 102.012 187.833C102.077 188.32 102.175 188.801 102.283 189.277C102.527 190.352 102.867 191.41 103.259 192.442C103.619 193.393 104.044 194.322 104.457 195.252C105.077 196.653 105.869 197.977 106.754 199.227C107.463 200.228 108.157 201.242 108.946 202.184C109.372 202.692 109.817 203.185 110.294 203.647C110.635 203.98 110.977 204.309 111.319 204.642C111.82 205.129 112.351 205.584 112.874 206.05C113.347 206.473 113.829 206.887 114.326 207.283C115.139 207.933 115.997 208.497 116.896 209.02C117.647 209.456 118.417 209.854 119.181 210.265C119.798 210.598 120.436 210.888 121.065 211.197C122.64 211.971 124.279 212.61 125.981 213.038C127.161 213.336 128.36 213.532 129.558 213.743C130.243 213.863 130.931 213.965 131.619 214.075C132.261 214.175 132.906 214.273 133.555 214.342C134.01 214.391 134.467 214.423 134.924 214.445C135.521 214.474 136.115 214.445 136.711 214.405C137.669 214.34 138.603 214.142 139.525 213.887C139.923 213.776 140.318 213.644 140.712 213.52C141.526 213.261 142.332 212.986 143.14 212.713C143.78 212.495 144.413 212.249 145.047 212.013C145.345 211.903 145.63 211.754 145.92 211.625C146.18 211.508 146.441 211.397 146.693 211.264C147.368 210.906 148.036 210.542 148.701 210.166C149.255 209.853 149.808 209.533 150.373 209.238C150.745 209.045 151.115 208.85 151.486 208.657C152.216 208.276 152.916 207.823 153.581 207.339C154.338 206.784 155.039 206.151 155.79 205.588C156.704 204.903 157.633 204.238 158.447 203.433C158.645 203.237 158.838 203.033 159.023 202.826C159.58 202.201 160.069 201.535 160.475 200.817ZM156.738 200.571C156.16 201.204 155.516 201.773 154.83 202.288C154.45 202.574 154.067 202.859 153.688 203.145C152.834 203.785 152.043 204.507 151.168 205.115C150.721 205.4 150.262 205.659 149.792 205.903C149.5 206.056 149.203 206.204 148.913 206.365C148.268 206.721 147.623 207.078 146.98 207.442C146.37 207.787 145.755 208.114 145.136 208.444C144.832 208.607 144.497 208.731 144.18 208.874C143.94 208.982 143.701 209.089 143.455 209.18C142.953 209.366 142.454 209.565 141.948 209.737C141.482 209.896 141.018 210.054 140.552 210.213C140.11 210.352 139.669 210.494 139.227 210.633C138.236 210.948 137.21 211.151 136.173 211.235C134.353 211.309 132.541 210.975 130.749 210.693C129.912 210.562 129.078 210.411 128.244 210.264C127.32 210.07 126.405 209.844 125.503 209.553C124.541 209.241 123.609 208.854 122.688 208.436C121.955 208.078 121.222 207.722 120.504 207.336C119.998 207.065 119.486 206.801 118.987 206.515C118.338 206.141 117.691 205.763 117.076 205.332C116.511 204.937 115.976 204.503 115.445 204.064C115.003 203.67 114.564 203.275 114.121 202.88C113.658 202.467 113.225 202.019 112.779 201.587C112.428 201.246 112.095 200.89 111.769 200.525C111.146 199.829 110.592 199.081 110.041 198.329C109.695 197.855 109.362 197.369 109.021 196.888C108.574 196.194 108.157 195.484 107.786 194.743C107.572 194.32 107.376 193.89 107.183 193.457C106.743 192.462 106.299 191.467 105.941 190.44C105.527 189.151 105.209 187.827 105.098 186.477C105.053 185.595 105.063 184.713 105.062 183.83C105.062 182.224 105.161 180.62 105.448 179.041C105.655 178.023 105.904 177.013 106.141 176C106.297 175.332 106.477 174.673 106.653 174.01C106.718 173.767 106.772 173.517 106.85 173.276C106.984 172.871 107.117 172.464 107.251 172.058C107.34 171.787 107.414 171.505 107.52 171.239C107.669 170.863 107.819 170.488 107.968 170.111C108.171 169.597 108.382 169.092 108.615 168.592C109.473 166.869 110.55 165.277 111.796 163.814C112.924 162.538 114.132 161.33 115.353 160.142C115.565 159.937 115.769 159.712 115.994 159.518C116.27 159.283 116.545 159.047 116.818 158.812C117.129 158.546 117.441 158.277 117.752 158.012C117.927 157.86 118.124 157.731 118.31 157.593C118.852 157.191 119.384 156.772 119.941 156.392C120.504 156.009 121.067 155.626 121.628 155.245C122.247 154.862 122.867 154.48 123.486 154.097C124.07 153.736 124.677 153.411 125.276 153.069C126.45 152.399 127.634 151.756 128.832 151.132C129.756 150.652 130.689 150.186 131.671 149.838C132.487 149.588 133.312 149.417 134.163 149.346C134.895 149.319 135.619 149.359 136.35 149.427C137.174 149.506 137.99 149.611 138.805 149.759C139.446 149.893 140.077 150.052 140.708 150.236C141.012 150.324 141.317 150.412 141.621 150.501C141.743 150.535 141.868 150.566 141.989 150.608C142.498 150.792 143.009 150.978 143.518 151.161C144.281 151.438 145.033 151.751 145.768 152.097C147.557 152.987 149.268 154.053 150.794 155.346C151.392 155.885 151.955 156.462 152.509 157.046C152.846 157.402 153.197 157.749 153.523 158.118C153.891 158.533 154.261 158.95 154.629 159.365C155.233 160.047 155.784 160.774 156.295 161.525C156.622 162.021 156.94 162.531 157.219 163.053C157.431 163.454 157.644 163.855 157.858 164.254C158.152 164.805 158.436 165.357 158.717 165.915C159.364 167.206 159.995 168.504 160.62 169.804C160.922 170.434 161.21 171.079 161.444 171.738C161.607 172.265 161.737 172.8 161.838 173.344C161.941 173.889 161.988 174.44 162.027 174.994C162.051 175.698 162.074 176.399 162.097 177.103C162.106 177.39 162.082 177.682 162.074 177.97C162.063 178.42 162.052 178.869 162.039 179.32C162.019 180.024 161.965 180.727 161.926 181.428C161.887 182.111 161.834 182.793 161.783 183.474C161.703 184.595 161.557 185.713 161.432 186.831C161.262 188.363 161.147 189.91 160.873 191.427C160.802 191.776 160.722 192.124 160.632 192.469C160.231 192.646 159.902 192.98 159.766 193.42C159.48 194.348 159.197 195.276 158.898 196.199C158.615 197.065 158.306 197.925 157.925 198.754C157.6 199.405 157.2 200.011 156.738 200.571Z" fill="#49B577"/>
<path d="M289.697 60.0296C289.297 60.0887 288.94 60.2432 288.623 60.493C288.485 60.631 288.347 60.7724 288.21 60.9104C287.961 61.2424 287.81 61.6138 287.758 62.0246C287.758 62.0936 287.761 62.1659 287.761 62.2349C287.666 62.3335 287.568 62.4289 287.473 62.5275C287.224 62.8594 287.073 63.2308 287.021 63.6416C286.69 65.0319 286.32 66.4156 285.995 67.8059C285.789 68.6867 285.592 69.5675 285.386 70.4484C285.013 70.1822 284.636 69.9159 284.256 69.6596C283.041 68.8445 281.819 68.0195 280.531 67.3227C280.141 67.165 279.738 67.1157 279.322 67.1748C278.736 67.2636 278.196 67.5824 277.835 68.0557C277.462 68.5454 277.301 69.1764 277.39 69.7845C277.442 69.9751 277.498 70.1657 277.553 70.3563C277.714 70.7245 277.953 71.0301 278.268 71.2766C278.431 71.3719 278.595 71.4672 278.762 71.5626C279.355 71.9175 279.932 72.3021 280.512 72.6767C281.164 73.104 281.809 73.5379 282.444 73.9881C283.021 74.399 283.591 74.823 284.184 75.2141C283.794 75.8681 283.407 76.5255 283.005 77.1729C282.156 78.5336 281.226 79.8417 280.269 81.1268C279.739 81.8367 279.208 82.5467 278.677 83.2533C278.182 83.9139 277.658 84.568 277.21 85.2582C277.111 85.4324 277.013 85.6033 276.915 85.7742C276.757 86.1653 276.708 86.5696 276.767 86.987C276.856 87.5753 277.173 88.1176 277.645 88.4791C278.133 88.8505 278.762 89.0149 279.368 88.9261C279.922 88.8439 280.541 88.5251 280.856 88.0453C281.255 87.4307 281.714 86.8522 282.156 86.2672C282.644 85.6131 283.136 84.9624 283.624 84.3083C284.479 83.1678 285.324 82.0142 286.104 80.8211C286.251 81.1104 286.398 81.4029 286.546 81.6954C287.257 83.1153 287.872 84.5745 288.472 86.047C288.685 86.5696 288.891 87.0889 289.075 87.6213C289.052 87.6805 289.029 87.7363 289.006 87.7922C288.518 88.9458 289.107 90.323 290.251 90.7929C291.414 91.2761 292.757 90.6976 293.245 89.544C293.392 89.1956 293.487 88.8242 293.586 88.4594C293.733 87.904 293.877 87.3485 294.011 86.7898C294.201 86.001 294.378 85.2056 294.529 84.4069C294.591 84.0815 294.65 83.7594 294.706 83.4341C295.469 84.5022 296.285 85.5343 297.143 86.5301C297.356 86.7799 297.582 87.0198 297.808 87.2565C297.946 87.3945 298.087 87.5326 298.224 87.6706C298.555 87.9204 298.925 88.0716 299.335 88.1242C299.934 88.1998 300.547 88.0289 301.025 87.6542C301.503 87.2795 301.815 86.724 301.89 86.1226C301.959 85.5671 301.818 84.8473 301.421 84.4266C300.259 83.1941 299.223 81.8499 298.234 80.476C297.494 79.4506 296.822 78.3824 296.157 77.3077C296.347 77.1335 296.518 76.9429 296.652 76.795C296.717 76.7194 296.786 76.6438 296.852 76.5649C297.117 76.2428 297.376 75.9141 297.638 75.5887C298.136 74.9643 298.634 74.3332 299.128 73.7055C299.78 72.8772 300.432 72.0424 301.091 71.2175C301.792 70.3366 302.522 69.4788 303.24 68.6111C304.036 67.6448 303.767 66.1264 302.807 65.3902C302.319 65.0155 301.69 64.8544 301.084 64.9432C300.478 65.0319 299.983 65.3573 299.597 65.824C298.571 67.0664 297.543 68.3055 296.547 69.5708C296.216 69.9882 295.889 70.4089 295.558 70.8263C295.531 70.7376 295.509 70.6456 295.482 70.5568C295.007 68.828 294.46 67.1222 293.864 65.4329C293.628 64.7624 293.373 64.0952 293.094 63.4379C292.803 62.751 292.528 62.0377 292.154 61.3903C291.994 61.0222 291.754 60.7165 291.44 60.47C291.04 60.1643 290.546 60 290.048 60C289.92 60.0066 289.809 60.0131 289.697 60.0296ZM290.641 79.5426C290.637 79.5755 290.631 79.6084 290.627 79.6379C290.627 79.6379 290.627 79.6379 290.627 79.6347C290.634 79.6051 290.637 79.5722 290.641 79.5426Z" fill="#49B577"/>
<path d="M280.826 71.773C280.528 71.7829 280.233 71.8026 279.938 71.8256C279.371 71.8683 278.801 71.9077 278.238 71.9735C277.144 72.1049 276.056 72.3547 275.005 72.69C274.517 72.8445 274.025 73.0022 273.537 73.1567C273.17 73.275 272.813 73.4295 272.453 73.5675C271.683 73.8633 270.936 74.2051 270.186 74.5404C269.783 74.7212 269.396 74.9611 269.003 75.1681C268.551 75.4081 268.116 75.6743 267.683 75.9471C267.339 76.1607 266.976 76.3612 266.648 76.5979C266.242 76.8937 265.836 77.1895 265.429 77.4853C264.614 78.0769 263.893 78.7736 263.195 79.4967C262.409 80.3085 261.708 81.2091 261.145 82.1918C260.787 82.813 260.453 83.4342 260.178 84.0948C259.936 84.6765 259.716 85.2681 259.52 85.8663C259.094 87.1613 258.783 88.5022 258.602 89.8531C258.419 91.2072 258.396 92.5843 258.468 93.9516C258.53 95.1413 258.766 96.3114 259.081 97.4585C259.435 98.7567 259.828 100.048 260.43 101.258C261.01 102.425 261.757 103.499 262.625 104.466C263.484 105.425 264.42 106.333 265.423 107.141C266.432 107.956 267.546 108.623 268.705 109.199C270.052 109.862 271.467 110.355 272.879 110.852C273.649 111.121 274.422 111.378 275.195 111.627C275.558 111.746 275.925 111.88 276.295 111.982C276.725 112.101 277.154 112.216 277.583 112.334C278.136 112.485 278.693 112.666 279.254 112.784C279.689 112.876 280.125 112.965 280.561 113.057C280.928 113.133 281.294 113.228 281.661 113.287C282.117 113.359 282.575 113.432 283.031 113.504C284.714 113.77 286.398 113.958 288.108 113.974C289.491 113.987 290.87 113.912 292.239 113.701C293.248 113.547 294.244 113.304 295.223 113.021C295.754 112.87 296.285 112.715 296.816 112.564C297.084 112.488 297.353 112.416 297.615 112.324C298.126 112.143 298.64 111.966 299.151 111.785C299.426 111.69 299.711 111.604 299.977 111.489C300.462 111.279 300.946 111.069 301.434 110.858C301.713 110.737 301.998 110.631 302.267 110.49C303.148 110.027 304.042 109.583 304.894 109.06C305.366 108.771 305.834 108.482 306.306 108.193C306.935 107.805 307.541 107.381 308.134 106.941C309.185 106.155 310.148 105.274 311.062 104.334C311.446 103.94 311.809 103.529 312.153 103.098C312.628 102.504 313.018 101.869 313.395 101.209C314.626 99.0591 315.504 96.6598 315.727 94.1816C315.845 92.8702 315.78 91.5424 315.524 90.2508C315.268 88.9558 314.839 87.7036 314.266 86.5138C313.88 85.7118 313.408 84.9493 312.936 84.1967C312.572 83.6182 312.209 83.0529 311.786 82.5172C311.236 81.8171 310.581 81.2058 309.929 80.601C309.637 80.3282 309.342 80.062 309.041 79.7958C308.438 79.2666 307.839 78.7309 307.207 78.2412C306.561 77.7416 305.903 77.2749 305.221 76.8279C304.52 76.3678 303.819 75.8978 303.092 75.4771C302.27 75.0005 301.451 74.5272 300.56 74.1887C300.088 74.0112 299.603 73.86 299.122 73.7154C298.712 73.5938 298.303 73.4755 297.897 73.3539C297.176 73.137 296.445 72.897 295.698 72.8017C294.46 72.644 293.297 73.5642 293.143 74.8033C292.989 76.0523 293.9 77.2092 295.138 77.3669C295.282 77.3867 295.427 77.4097 295.567 77.4392C296.105 77.597 296.639 77.7548 297.176 77.9125C297.507 78.0078 297.834 78.113 298.165 78.2182C298.886 78.445 299.574 78.7473 300.242 79.099C300.769 79.4113 301.29 79.7301 301.801 80.0686C302.142 80.2921 302.489 80.5123 302.827 80.7457C303.158 80.9724 303.502 81.1861 303.816 81.4293C304.461 81.9289 305.097 82.435 305.713 82.974C306.306 83.4933 306.889 84.0225 307.469 84.5582C308.019 85.14 308.523 85.7578 308.953 86.4382C309.152 86.757 309.356 87.0758 309.555 87.3979C310.073 88.3182 310.518 89.2713 310.84 90.2803C311.046 91.0889 311.183 91.9138 311.223 92.7486C311.206 93.6525 311.102 94.5563 310.898 95.4404C310.532 96.7124 309.994 97.9416 309.359 99.1018C308.854 99.9268 308.245 100.683 307.583 101.383C307.003 101.951 306.394 102.481 305.759 102.987C305.126 103.49 304.465 103.979 303.777 104.403C303.285 104.706 302.797 105.008 302.306 105.307C301.991 105.471 301.674 105.639 301.359 105.803C301.028 105.978 300.697 106.181 300.353 106.329C299.931 106.513 299.508 106.697 299.082 106.878C298.745 107.023 298.411 107.197 298.064 107.319C297.258 107.601 296.452 107.881 295.646 108.163C295.256 108.301 294.843 108.393 294.447 108.508C294.228 108.571 294.008 108.633 293.792 108.696C292.121 109.103 290.434 109.366 288.714 109.415C287.345 109.412 285.956 109.323 284.606 109.106C284.007 109.011 283.411 108.916 282.811 108.821C281.838 108.666 280.878 108.446 279.915 108.245C279.306 108.078 278.697 107.913 278.087 107.746C277.344 107.542 276.613 107.272 275.879 107.036C275.188 106.812 274.51 106.563 273.825 106.323C272.433 105.833 271.054 105.297 269.757 104.591C268.718 103.956 267.772 103.177 266.897 102.336C266.134 101.557 265.423 100.729 264.836 99.8084C264.293 98.8126 263.906 97.7477 263.582 96.6598C263.408 96.0057 263.261 95.3484 263.153 94.6779C263.051 94.0633 263.005 93.4421 262.986 92.8209C262.999 91.3255 263.185 89.8366 263.536 88.3839C263.886 87.1152 264.348 85.8565 264.967 84.6963C265.475 83.868 266.081 83.1088 266.746 82.3989C267.546 81.6331 268.43 80.9922 269.324 80.3414C269.727 80.0489 270.16 79.7892 270.586 79.5296C271.057 79.2798 271.532 79.0267 272.004 78.7769C272.243 78.6487 272.502 78.5534 272.751 78.4417C273.043 78.3102 273.337 78.1788 273.629 78.0506C274.16 77.8139 274.723 77.6299 275.267 77.4228C275.526 77.3242 275.798 77.2519 276.06 77.1697C276.276 77.1007 276.492 77.0317 276.711 76.9627C277.684 76.7129 278.674 76.5321 279.676 76.4598C280.341 76.4105 281.006 76.3546 281.674 76.3316C282.068 76.3349 282.457 76.3546 282.847 76.4006C283.26 76.45 283.666 76.5354 284.069 76.634C284.42 76.7293 284.77 76.8246 285.121 76.92C285.317 76.9725 285.517 77.0251 285.717 77.0744C286.126 77.1237 286.523 77.0678 286.903 76.9035C287.447 76.6669 287.889 76.2199 288.115 75.6677C288.347 75.0991 288.344 74.4451 288.102 73.8798C288.003 73.7121 287.902 73.5445 287.804 73.3736C287.555 73.0548 287.243 72.8182 286.873 72.6637C285.602 72.3153 284.325 71.9012 283.004 71.7894C282.67 71.7631 282.336 71.7533 282.002 71.7533C281.596 71.7467 281.209 71.7566 280.826 71.773Z" fill="#49B577"/>
<path d="M14.3768 158.625C14.2029 158.718 14.0641 158.848 13.9591 159.015C13.9185 159.101 13.8785 159.188 13.8379 159.274C13.778 159.468 13.7697 159.663 13.8131 159.861C13.8244 159.893 13.8378 159.925 13.8492 159.957C13.8217 160.018 13.7922 160.078 13.7647 160.139C13.7048 160.332 13.6965 160.528 13.7399 160.725C13.8162 161.419 13.8733 162.116 13.9525 162.808C14.0024 163.247 14.0567 163.685 14.1065 164.123C13.8911 164.062 13.6742 164.002 13.4575 163.946C12.765 163.771 12.0678 163.592 11.3616 163.483C11.1565 163.475 10.9632 163.518 10.7817 163.614C10.5268 163.751 10.3307 163.986 10.2428 164.263C10.1516 164.55 10.1814 164.866 10.3219 165.131C10.3773 165.21 10.4342 165.289 10.4911 165.367C10.6254 165.51 10.7855 165.611 10.9705 165.673C11.0615 165.69 11.1524 165.707 11.2449 165.723C11.5757 165.789 11.9039 165.871 12.2319 165.948C12.6018 166.038 12.9696 166.131 13.3357 166.234C13.6682 166.328 13.9998 166.429 14.3366 166.512C14.2649 166.877 14.1951 167.242 14.1163 167.606C13.9498 168.371 13.737 169.125 13.5084 169.873C13.3811 170.287 13.2537 170.7 13.1259 171.112C13.007 171.497 12.8735 171.884 12.7806 172.275C12.764 172.371 12.7469 172.466 12.7298 172.561C12.7218 172.766 12.7656 172.96 12.8612 173.143C12.9985 173.399 13.2336 173.596 13.5098 173.684C13.7952 173.775 14.1113 173.747 14.3753 173.607C14.6163 173.478 14.8485 173.23 14.9142 172.958C14.997 172.61 15.1128 172.268 15.22 171.927C15.3369 171.546 15.4559 171.166 15.5728 170.785C15.7785 170.12 15.9775 169.451 16.1399 168.775C16.2552 168.883 16.371 168.994 16.4868 169.104C17.0467 169.64 17.5695 170.21 18.0869 170.789C18.2706 170.994 18.4507 171.199 18.6225 171.413C18.6217 171.444 18.6203 171.474 18.6189 171.503C18.5841 172.114 19.0813 172.65 19.684 172.679C20.2979 172.71 20.8202 172.223 20.8551 171.613C20.8656 171.428 20.8483 171.242 20.8336 171.058C20.8101 170.778 20.7851 170.499 20.7551 170.22C20.7128 169.827 20.6635 169.432 20.6016 169.04C20.5768 168.88 20.551 168.722 20.5231 168.564C21.0494 168.929 21.5939 169.27 22.1519 169.587C22.2908 169.667 22.4341 169.74 22.5769 169.812C22.6628 169.853 22.7502 169.893 22.8361 169.934C23.0292 169.994 23.2242 170.003 23.4211 169.96C23.709 169.896 23.9625 169.717 24.1208 169.466C24.2791 169.215 24.331 168.909 24.2668 168.62C24.2072 168.353 24.0242 168.046 23.7729 167.917C23.036 167.542 22.3394 167.093 21.659 166.624C21.1503 166.274 20.6662 165.893 20.184 165.509C20.2427 165.397 20.2897 165.282 20.3271 165.192C20.3448 165.146 20.364 165.1 20.3812 165.053C20.4502 164.861 20.5152 164.668 20.5822 164.475C20.7085 164.106 20.8338 163.734 20.958 163.364C21.1216 162.877 21.2842 162.386 21.4513 161.898C21.6289 161.378 21.8238 160.864 22.011 160.347C22.2182 159.772 21.8454 159.118 21.2833 158.937C20.9974 158.845 20.6818 158.874 20.4178 159.015C20.1538 159.155 19.9799 159.386 19.8789 159.664C19.6116 160.403 19.3423 161.142 19.0924 161.887C19.0089 162.134 18.9274 162.381 18.8439 162.627C18.8173 162.591 18.7916 162.552 18.765 162.515C18.2627 161.799 17.7311 161.104 17.1796 160.425C16.9611 160.156 16.734 159.891 16.4981 159.634C16.2512 159.367 16.0076 159.084 15.7296 158.847C15.5954 158.705 15.4353 158.603 15.2502 158.542C15.0163 158.467 14.762 158.472 14.5331 158.554C14.4754 158.578 14.4253 158.599 14.3768 158.625ZM18.0154 167.442C18.0193 167.458 18.0216 167.474 18.025 167.488C18.025 167.488 18.025 167.488 18.0245 167.486C18.0226 167.472 18.0187 167.456 18.0154 167.442Z" fill="#49B577"/>
<path d="M12.2279 165.481C12.0925 165.535 11.9602 165.592 11.8285 165.651C11.575 165.764 11.3195 165.875 11.0713 165.998C10.59 166.238 10.1311 166.532 9.70281 166.859C9.50382 167.01 9.30387 167.163 9.10489 167.314C8.95568 167.429 8.81692 167.558 8.67397 167.681C8.3687 167.943 8.08153 168.223 7.79178 168.501C7.63626 168.65 7.49799 168.824 7.35131 168.983C7.18292 169.168 7.02639 169.362 6.87243 169.558C6.74942 169.713 6.61521 169.865 6.5035 170.027C6.36537 170.23 6.22724 170.433 6.08912 170.636C5.81135 171.041 5.59453 171.48 5.39257 171.927C5.16452 172.43 4.9902 172.959 4.89262 173.503C4.83052 173.847 4.77896 174.188 4.76098 174.537C4.7451 174.844 4.74138 175.152 4.74929 175.459C4.76623 176.125 4.84343 176.792 4.98247 177.443C5.12056 178.096 5.3362 178.733 5.59389 179.349C5.81791 179.886 6.1185 180.385 6.45145 180.861C6.82729 181.4 7.22013 181.929 7.69584 182.386C8.15399 182.828 8.67382 183.199 9.23155 183.501C9.78368 183.801 10.3633 184.064 10.9569 184.272C11.5545 184.481 12.176 184.605 12.8035 184.679C13.5314 184.763 14.2629 184.757 14.9934 184.753C15.3915 184.751 15.789 184.742 16.1853 184.73C16.3719 184.724 16.5627 184.726 16.7496 184.712C16.9662 184.696 17.1824 184.679 17.3991 184.663C17.6784 184.641 17.964 184.633 18.241 184.595C18.4563 184.566 18.6712 184.535 18.8866 184.506C19.0676 184.481 19.2519 184.464 19.4303 184.431C19.6515 184.39 19.8741 184.347 20.0953 184.306C20.913 184.152 21.7177 183.962 22.5064 183.688C23.144 183.467 23.7655 183.206 24.3603 182.885C24.7987 182.648 25.2165 182.373 25.6203 182.082C25.8394 181.925 26.058 181.767 26.2771 181.61C26.3881 181.531 26.4997 181.454 26.6051 181.369C26.8103 181.202 27.0175 181.036 27.2227 180.869C27.3336 180.78 27.4505 180.694 27.5536 180.597C27.7419 180.421 27.9302 180.244 28.12 180.068C28.228 179.966 28.3417 179.871 28.442 179.762C28.7709 179.404 29.1091 179.053 29.4148 178.673C29.5841 178.463 29.7519 178.253 29.9213 178.042C30.1467 177.761 30.3556 177.466 30.5558 177.166C30.9101 176.633 31.2081 176.069 31.4739 175.487C31.5852 175.243 31.6849 174.994 31.7723 174.74C31.8929 174.388 31.9679 174.033 32.0326 173.667C32.2457 172.477 32.2552 171.229 31.9505 170.053C31.7894 169.431 31.5412 168.831 31.2116 168.279C30.8814 167.726 30.4785 167.221 30.0196 166.768C29.7102 166.463 29.3681 166.189 29.0277 165.921C28.7655 165.715 28.5056 165.514 28.2233 165.337C27.8554 165.106 27.4538 164.932 27.0549 164.761C26.876 164.684 26.6968 164.61 26.5145 164.537C26.1506 164.393 25.787 164.245 25.416 164.123C25.0373 164 24.658 163.893 24.2714 163.8C23.8736 163.703 23.4742 163.602 23.0708 163.528C22.6146 163.444 22.1604 163.361 21.6953 163.352C21.4493 163.347 21.2016 163.357 20.9565 163.37C20.7483 163.381 20.5407 163.394 20.334 163.405C19.9671 163.424 19.5919 163.433 19.2329 163.512C18.6379 163.643 18.2545 164.257 18.3872 164.852C18.5216 165.451 19.1302 165.834 19.7253 165.703C19.7947 165.688 19.8648 165.675 19.9344 165.666C20.2072 165.65 20.4786 165.635 20.7514 165.619C20.9192 165.609 21.087 165.603 21.2564 165.597C21.6249 165.583 21.9908 165.609 22.3557 165.661C22.6494 165.718 22.9412 165.779 23.2317 165.851C23.425 165.898 23.6207 165.942 23.8142 165.994C24.0035 166.044 24.1967 166.086 24.3812 166.146C24.7599 166.27 25.1351 166.398 25.5067 166.545C25.8645 166.686 26.2195 166.834 26.574 166.985C26.9225 167.162 27.2559 167.363 27.5649 167.605C27.7091 167.719 27.8548 167.832 27.9995 167.948C28.3886 168.286 28.7499 168.651 29.0632 169.062C29.2909 169.4 29.4896 169.757 29.6448 170.134C29.7857 170.552 29.886 170.985 29.9378 171.425C29.9781 172.07 29.933 172.723 29.8315 173.361C29.7351 173.823 29.5792 174.271 29.39 174.701C29.2169 175.058 29.0237 175.401 28.8147 175.738C28.6067 176.073 28.383 176.407 28.1364 176.715C27.9602 176.935 27.7855 177.154 27.6088 177.372C27.4912 177.499 27.3727 177.629 27.2551 177.756C27.1317 177.89 27.0131 178.038 26.8793 178.163C26.7152 178.317 26.5512 178.471 26.3852 178.624C26.2538 178.746 26.1289 178.881 25.9892 178.994C25.6652 179.256 25.3407 179.517 25.0167 179.779C24.8602 179.906 24.6856 180.017 24.5223 180.134C24.4317 180.199 24.341 180.264 24.2519 180.328C23.5509 180.79 22.8187 181.188 22.0362 181.493C21.4063 181.716 20.7533 181.903 20.0973 182.025C19.8061 182.08 19.5164 182.134 19.2252 182.189C18.7526 182.277 18.2753 182.334 17.7996 182.4C17.492 182.423 17.185 182.447 16.8774 182.47C16.5021 182.499 16.1221 182.495 15.7459 182.506C15.3915 182.517 15.0388 182.514 14.6847 182.516C13.9643 182.519 13.2424 182.499 12.5301 182.387C11.9486 182.266 11.3855 182.063 10.8452 181.82C10.3665 181.587 9.90368 181.323 9.483 180.997C9.06949 180.628 8.71691 180.202 8.38916 179.755C8.20193 179.483 8.02621 179.205 7.8664 178.914C7.71878 178.648 7.59567 178.37 7.48461 178.088C7.24502 177.398 7.08631 176.683 7.00882 175.957C6.96157 175.317 6.96713 174.662 7.06116 174.027C7.15852 173.563 7.31238 173.114 7.50145 172.678C7.74307 172.195 8.04436 171.755 8.34854 171.309C8.4857 171.109 8.64182 170.918 8.79492 170.729C8.97072 170.537 9.14748 170.342 9.32329 170.15C9.41215 170.052 9.51545 169.965 9.61153 169.873C9.72395 169.765 9.83788 169.656 9.95084 169.549C10.1559 169.353 10.3847 169.176 10.6006 168.992C10.7034 168.904 10.8165 168.826 10.9234 168.745C11.0115 168.678 11.0995 168.611 11.1891 168.543C11.5952 168.268 12.0203 168.023 12.4692 167.825C12.7667 167.693 13.0632 167.558 13.3666 167.438C13.5478 167.375 13.7303 167.32 13.917 167.277C14.1148 167.232 14.3156 167.204 14.517 167.184C14.6937 167.17 14.8705 167.156 15.0473 167.142C15.1463 167.134 15.2468 167.126 15.3467 167.116C15.543 167.071 15.716 166.98 15.8637 166.842C16.0748 166.644 16.2047 166.366 16.2179 166.075C16.2314 165.775 16.1225 165.475 15.9182 165.255C15.8455 165.194 15.7713 165.134 15.698 165.071C15.5312 164.966 15.3493 164.908 15.1538 164.898C14.5123 164.946 13.8571 164.966 13.2319 165.131C13.074 165.174 12.9188 165.224 12.7652 165.279C12.5774 165.343 12.4014 165.411 12.2279 165.481Z" fill="#49B577"/>
<path d="M89.4199 152.072C89.411 151.837 89.3967 151.604 89.3777 151.369C89.3593 151.143 89.3117 150.916 89.2701 150.693C89.1715 150.165 89.0181 149.641 88.8375 149.135C88.6544 148.624 88.3822 148.157 88.0975 147.696C87.5823 146.861 86.8388 146.188 86.0513 145.612C85.2526 145.028 84.3837 144.525 83.4452 144.202C82.5918 143.908 81.711 143.734 80.819 143.619C80.8974 143.57 80.9759 143.521 81.0537 143.471C81.6421 143.103 82.2322 142.739 82.8277 142.382C83.2218 142.152 83.6152 141.92 84.0176 141.705C84.1109 141.65 84.2036 141.595 84.2963 141.54C84.4716 141.403 84.6024 141.231 84.688 141.026C84.8169 140.713 84.8145 140.354 84.6802 140.044C84.5501 139.743 84.3028 139.5 83.9991 139.375C83.7073 139.255 83.3014 139.229 83.0144 139.383C82.1086 139.867 81.2302 140.406 80.3542 140.941C79.5792 141.416 78.8137 141.905 78.0536 142.402C77.9371 142.479 77.8218 142.556 77.7065 142.635C77.6721 142.439 77.6352 142.244 77.5918 142.051C77.4022 141.203 77.1508 140.371 76.9078 139.536C76.7592 138.997 76.61 138.457 76.4751 137.914C76.2956 137.19 76.1197 136.452 75.8261 135.764C75.6977 135.463 75.4475 135.219 75.145 135.095C74.9881 135.031 74.8271 135 74.6624 135C74.6006 135 74.5388 135.004 74.4758 135.013C74.2553 135.046 74.0568 135.131 73.8809 135.267C73.6135 135.445 73.4423 135.796 73.4037 136.105C73.3829 136.144 73.3627 136.182 73.3454 136.224C73.2884 136.422 73.2337 136.612 73.2117 136.816C73.2058 136.873 73.2028 136.93 73.1981 136.986C73.1903 137.084 73.1838 137.183 73.1767 137.281C73.1612 137.507 73.1458 137.733 73.1297 137.959C73.1006 138.384 73.0685 138.809 73.0394 139.233C72.9776 140.136 72.9229 141.04 72.8314 141.939C72.8213 142.04 72.8112 142.141 72.8005 142.242C72.5116 142.011 72.2204 141.784 71.9167 141.57C71.484 141.267 71.0282 140.991 70.5658 140.735C70.3644 140.624 70.1653 140.509 69.9567 140.411C69.7374 140.307 69.5198 140.209 69.2952 140.117C69.1145 140.043 68.9338 139.973 68.749 139.91C68.5024 139.828 68.2468 139.765 67.9919 139.714C67.7357 139.664 67.457 139.678 67.1996 139.693C66.9791 139.726 66.7806 139.811 66.6047 139.947C66.3408 140.153 66.1679 140.458 66.1269 140.789C66.1001 141.016 66.1311 141.234 66.2208 141.443C66.2761 141.536 66.3313 141.629 66.3866 141.721C66.5245 141.896 66.6962 142.027 66.9019 142.112C66.9025 142.112 66.9031 142.112 66.9031 142.112C67.013 142.141 67.1224 142.169 67.2317 142.198C67.3209 142.209 67.4088 142.21 67.495 142.203C67.5836 142.211 67.6709 142.223 67.7583 142.24C68.3645 142.428 68.9374 142.712 69.4937 143.015C69.8592 143.238 70.2176 143.468 70.5682 143.714C70.5724 143.717 70.5771 143.72 70.5813 143.723C70.57 143.722 70.5581 143.721 70.5468 143.72C69.6803 143.633 68.8138 143.539 67.9425 143.507C67.3654 143.485 66.7896 143.489 66.2131 143.521C65.7917 143.544 65.3602 143.595 64.9496 143.694C64.3945 143.826 63.8465 143.983 63.2985 144.143C62.8635 144.271 62.4487 144.439 62.0356 144.624C61.7492 144.753 61.4782 144.926 61.2101 145.087C61.011 145.208 60.8185 145.336 60.6253 145.465C60.2521 145.715 59.9139 146.018 59.5811 146.316C59.1615 146.693 58.7818 147.119 58.402 147.535C58.109 147.857 57.8326 148.195 57.5676 148.54C57.4968 148.631 57.4267 148.723 57.356 148.814C57.1147 149.128 56.9204 149.483 56.726 149.825C56.5103 150.205 56.3504 150.605 56.2036 151.014C56.0087 151.557 55.869 152.116 55.7288 152.674C55.6182 153.115 55.5558 153.565 55.494 154.014C55.4334 154.456 55.4298 154.902 55.4322 155.347C55.4334 155.527 55.4239 155.717 55.4381 155.894C55.4488 156.032 55.4595 156.17 55.4708 156.308C55.4875 156.526 55.5112 156.739 55.5404 156.955C55.6152 157.511 55.7163 158.063 55.8613 158.605C56.0491 159.307 56.2827 159.989 56.6066 160.64C56.9269 161.284 57.3185 161.904 57.7566 162.476C57.9937 162.785 58.2522 163.074 58.522 163.355C58.7497 163.592 58.9719 163.838 59.2132 164.062C59.5431 164.368 59.8676 164.68 60.2123 164.969C60.5986 165.295 60.9878 165.611 61.386 165.921C62.0719 166.454 62.7726 166.973 63.4869 167.468C63.9059 167.759 64.3285 168.041 64.7552 168.321C64.9222 168.43 65.0964 168.526 65.2687 168.626C65.5278 168.776 65.7846 168.94 66.0544 169.07C66.2927 169.185 66.5304 169.299 66.7682 169.414C66.9904 169.521 67.2288 169.601 67.457 169.694C67.8367 169.848 68.2337 169.97 68.629 170.076C69.1799 170.223 69.7314 170.36 70.2859 170.492C70.7423 170.601 71.2071 170.676 71.6689 170.755C72.5651 170.907 73.4792 170.964 74.3867 170.994C74.9394 171.013 75.4921 170.983 76.043 170.94C76.4555 170.907 76.8757 170.831 77.2792 170.743C78.2592 170.525 79.2292 170.265 80.1753 169.928C80.627 169.767 81.0715 169.598 81.5107 169.406C81.6985 169.323 81.8804 169.221 82.0617 169.125C82.2471 169.025 82.4355 168.928 82.6168 168.821C82.9002 168.655 83.1956 168.5 83.4619 168.306C83.6556 168.165 83.8411 168.023 84.0241 167.868C84.4259 167.528 84.7931 167.143 85.1462 166.753C85.7399 166.096 86.2878 165.39 86.7698 164.647C87.0824 164.166 87.3731 163.676 87.6447 163.17C87.8521 162.785 88.0024 162.371 88.1344 161.955C88.2972 161.443 88.4185 160.911 88.5326 160.386C88.6324 159.926 88.7335 159.466 88.8309 159.005C89.0128 158.148 89.1174 157.272 89.2113 156.401C89.2582 155.963 89.2879 155.525 89.3141 155.086C89.3408 154.633 89.3819 154.179 89.4015 153.725C89.4276 153.176 89.4407 152.624 89.4199 152.072ZM86.8845 153.456C86.8542 153.917 86.8233 154.379 86.7954 154.841C86.7425 155.734 86.6462 156.621 86.5202 157.506C86.4335 158.118 86.3134 158.723 86.1815 159.327C86.0674 159.849 85.9527 160.368 85.8249 160.886C85.7815 161.022 85.7387 161.158 85.6953 161.293C85.6472 161.445 85.5794 161.593 85.5218 161.742C85.4267 161.989 85.2953 162.224 85.1682 162.457C84.8371 163.001 84.4829 163.527 84.102 164.037C83.8731 164.345 83.6372 164.643 83.3876 164.934C83.2099 165.141 83.0227 165.34 82.8337 165.537C82.6465 165.713 82.4581 165.883 82.2614 166.049C82.0736 166.208 81.8638 166.341 81.6563 166.475C81.1547 166.761 80.6436 167.026 80.1135 167.258C79.7926 167.399 79.4538 167.508 79.124 167.625C78.8334 167.729 78.5398 167.821 78.2456 167.912C77.6495 168.073 77.0522 168.215 76.4442 168.331C75.8867 168.438 75.3245 168.473 74.7593 168.489C74.3374 168.475 73.9178 168.453 73.497 168.424C73.062 168.395 72.6299 168.337 72.1984 168.281C71.3842 168.174 70.5819 167.982 69.7843 167.791C69.8639 167.812 69.9436 167.833 70.0226 167.854C69.7867 167.794 69.5448 167.742 69.3148 167.665C69.0533 167.576 68.7811 167.503 68.5255 167.4C68.264 167.293 67.9907 167.201 67.7357 167.078C67.4712 166.951 67.2068 166.824 66.9423 166.696C66.6404 166.521 66.3414 166.344 66.0484 166.152C65.636 165.882 65.2313 165.603 64.8259 165.322C64.0896 164.811 63.377 164.265 62.6704 163.715C62.312 163.436 61.9667 163.144 61.619 162.851C61.3593 162.632 61.115 162.396 60.8678 162.163C60.6871 161.974 60.5065 161.787 60.3264 161.598C59.886 161.139 59.5056 160.617 59.171 160.076C58.8299 159.476 58.5595 158.844 58.3574 158.185C58.2385 157.738 58.1435 157.281 58.0816 156.824C58.0537 156.617 58.0169 156.41 58.0002 156.202C57.9818 155.973 57.964 155.744 57.9461 155.514C57.9473 155.591 57.9479 155.667 57.9485 155.743C57.945 155.52 57.9354 155.296 57.9509 155.075C57.9711 154.775 57.9895 154.478 58.0305 154.182C58.0721 153.88 58.1227 153.585 58.1815 153.286C58.2172 153.104 58.2605 152.923 58.3063 152.744C58.5018 152.095 58.7134 151.46 59.0349 150.861C59.3374 150.368 59.6976 149.904 60.0756 149.467C60.3614 149.137 60.6538 148.814 60.954 148.497C61.2339 148.229 61.5209 147.976 61.8223 147.729C62.0957 147.506 62.3946 147.313 62.6965 147.128C63.0186 146.96 63.3413 146.805 63.6819 146.676C63.9761 146.565 64.2756 146.475 64.5769 146.386C64.962 146.282 65.3466 146.188 65.74 146.118C66.1352 146.048 66.5352 146.025 66.9352 146.004C67.2769 146.005 67.618 146.013 67.9604 146.034C68.2902 146.055 68.6189 146.08 68.9481 146.106C68.4626 146.237 67.9746 146.359 67.4784 146.449C67.1681 146.505 66.8561 146.547 66.5447 146.597C66.3789 146.624 66.2149 146.651 66.0502 146.687C65.9646 146.705 65.8785 146.724 65.7935 146.742C65.7596 146.748 65.7251 146.753 65.6907 146.757C65.4428 146.788 65.2515 146.885 65.0488 147.023C64.9466 147.089 64.8598 147.173 64.7879 147.275C64.6774 147.419 64.5383 147.7 64.5383 147.887C64.5395 148.001 64.5407 148.113 64.5424 148.226C64.5757 148.446 64.6613 148.644 64.7974 148.82C65.0036 149.083 65.3097 149.255 65.6419 149.296C65.8482 149.322 66.0562 149.295 66.2475 149.223C66.3058 149.212 66.364 149.201 66.4211 149.189C66.5221 149.167 66.6226 149.147 66.7242 149.131C66.9738 149.09 67.2228 149.053 67.473 149.016C67.8878 148.955 68.3045 148.872 68.7104 148.768C69.6435 148.528 70.5807 148.285 71.4745 147.924C71.4644 147.957 71.4537 147.991 71.4436 148.026C71.178 148.897 70.9046 149.765 70.6265 150.632C70.4208 151.273 70.2544 151.927 70.0945 152.58C69.9602 153.127 69.8556 153.68 69.8265 154.242C69.8277 154.355 69.8289 154.468 69.8307 154.581C69.8628 154.791 69.9436 154.981 70.0696 155.15C70.0624 155.345 70.0987 155.544 70.1724 155.715C70.3026 156.016 70.5498 156.259 70.8535 156.383C71.1673 156.512 71.5274 156.509 71.8389 156.375C72.1527 156.241 72.3666 156 72.5092 155.696C72.9152 154.834 73.3502 153.985 73.7644 153.127C74.1478 152.334 74.5537 151.552 74.9442 150.762C75.2669 150.111 75.57 149.454 75.857 148.786C75.9795 148.502 76.1007 148.217 76.213 147.928C76.2439 147.946 76.2748 147.963 76.3051 147.98C77.026 148.399 77.744 148.824 78.4607 149.25C78.8524 149.483 79.2428 149.718 79.6285 149.962C79.994 150.192 80.3542 150.429 80.7274 150.645C81.2409 150.944 81.7592 151.232 82.3214 151.428C82.6495 151.542 82.9811 151.56 83.3068 151.42C83.6087 151.29 83.8517 151.044 83.9771 150.741C84.1061 150.428 84.1037 150.069 83.9694 149.758C83.8452 149.472 83.5903 149.195 83.2883 149.09C82.8753 148.946 82.4908 148.751 82.1092 148.542C81.7901 148.351 81.4798 148.149 81.1648 147.95C80.7791 147.706 80.3893 147.472 79.997 147.239C79.3136 146.832 78.6283 146.429 77.9413 146.028C78.1303 145.997 78.321 145.975 78.516 145.967C78.4025 145.968 78.2896 145.969 78.176 145.971C78.2794 145.97 78.3835 145.969 78.4869 145.967C78.6111 145.966 78.7359 145.964 78.8601 145.963C78.7466 145.964 78.6337 145.966 78.5201 145.967C79.137 145.96 79.7605 146.035 80.3714 146.111C80.6912 146.151 81.0091 146.192 81.3265 146.248C81.5571 146.288 81.7841 146.34 82.0112 146.395C82.3487 146.497 82.678 146.612 83.0072 146.743C83.2598 146.843 83.5017 146.969 83.7394 147.101C84.3391 147.482 84.909 147.899 85.4314 148.379C85.5693 148.535 85.7007 148.692 85.8296 148.856C85.9265 148.98 86.0121 149.112 86.0953 149.247C86.2124 149.464 86.3229 149.682 86.418 149.911C86.4982 150.105 86.566 150.301 86.6278 150.5C86.7039 150.795 86.7805 151.093 86.8215 151.395C86.8685 151.742 86.8958 152.086 86.9101 152.436C86.9119 152.774 86.9077 153.115 86.8845 153.456Z" fill="#F7F1D7"/>
</svg>
