<svg width="448" height="560" viewBox="0 0 448 560" fill="none" xmlns="http://www.w3.org/2000/svg">
<path d="M363.977 147.871C363.9 145.837 363.777 143.818 363.613 141.789C363.454 139.832 363.044 137.875 362.685 135.948C361.834 131.383 360.511 126.848 358.953 122.478C357.374 118.056 355.025 114.018 352.57 110.032C348.124 102.812 341.71 96.9915 334.917 92.0112C328.026 86.9642 320.53 82.614 312.435 79.8215C305.072 77.2801 297.474 75.7737 289.778 74.7796C290.455 74.3544 291.132 73.9291 291.804 73.5038C296.879 70.3168 301.97 67.1707 307.108 64.0862C310.507 62.0981 313.901 60.0895 317.372 58.2347C318.177 57.7582 318.977 57.2817 319.777 56.8052C321.289 55.6164 322.417 54.1356 323.156 52.3577C324.268 49.6523 324.248 46.5523 323.089 43.8674C321.966 41.2645 319.833 39.1637 317.213 38.0877C314.696 37.0476 311.194 36.8272 308.718 38.1543C300.904 42.3354 293.326 46.9981 285.769 51.6301C279.083 55.7291 272.48 59.9614 265.922 64.2604C264.917 64.9213 263.923 65.5874 262.928 66.2689C262.631 64.578 262.313 62.8923 261.938 61.2219C260.303 53.8897 258.134 46.6958 256.037 39.4814C254.755 34.8187 253.468 30.1509 252.305 25.4574C250.756 19.1909 249.239 12.8117 246.706 6.86295C245.598 4.26003 243.44 2.15413 240.83 1.07812C239.477 0.529865 238.087 0.258301 236.667 0.258301C236.134 0.258301 235.601 0.294168 235.057 0.371026C233.155 0.657961 231.443 1.39067 229.925 2.56916C229.925 2.56916 229.925 2.57428 229.92 2.57428C227.613 4.11144 226.141 7.14476 225.808 9.81429C225.629 10.1473 225.454 10.4804 225.305 10.8391C224.813 12.5504 224.342 14.2003 224.152 15.9578C224.101 16.4497 224.075 16.9416 224.034 17.4283C223.967 18.2789 223.911 19.1295 223.849 19.98C223.716 21.9373 223.583 23.8895 223.444 25.8468C223.193 29.5206 222.916 33.1893 222.665 36.858C222.132 44.6616 221.66 52.4806 220.871 60.2586C220.783 61.1297 220.696 62.0007 220.604 62.8769C218.112 60.8735 215.6 58.9111 212.98 57.0665C209.248 54.4431 205.315 52.0553 201.326 49.847C199.588 48.8837 197.871 47.8948 196.071 47.0442C194.179 46.1475 192.303 45.297 190.365 44.5028C188.806 43.8623 187.247 43.2526 185.653 42.7146C183.525 42.0023 181.32 41.4541 179.121 41.0186C176.911 40.5882 174.507 40.706 172.287 40.8341C170.384 41.121 168.672 41.8537 167.154 43.0322C164.878 44.8102 163.386 47.449 163.032 50.3132C162.801 52.2705 163.068 54.1561 163.842 55.97C164.319 56.7693 164.796 57.5737 165.273 58.3731C166.462 59.8846 167.944 61.0118 169.718 61.7497C169.723 61.7497 169.728 61.7497 169.728 61.7548C170.677 62.0007 171.62 62.2467 172.563 62.4978C173.332 62.59 174.091 62.6002 174.835 62.5387C175.599 62.6054 176.352 62.713 177.106 62.8616C182.336 64.4807 187.278 66.9401 192.077 69.5584C195.23 71.4901 198.322 73.4731 201.347 75.5995C201.383 75.6251 201.424 75.6558 201.46 75.6814C201.362 75.6712 201.26 75.6609 201.162 75.6507C193.687 74.8975 186.212 74.093 178.695 73.8112C173.717 73.6217 168.749 73.6524 163.776 73.9291C160.14 74.1289 156.418 74.5747 152.875 75.4252C148.087 76.573 143.36 77.9308 138.632 79.3143C134.879 80.4159 131.301 81.8711 127.737 83.4697C125.266 84.5816 122.928 86.0777 120.616 87.4765C118.898 88.5167 117.237 89.6234 115.571 90.7404C112.351 92.9027 109.434 95.521 106.563 98.1034C102.943 101.357 99.6668 105.046 96.3906 108.643C93.8629 111.42 91.4788 114.346 89.1922 117.328C88.582 118.117 87.9771 118.911 87.3669 119.7C85.2853 122.411 83.6088 125.48 81.9322 128.442C80.0711 131.721 78.6919 135.185 77.4256 138.72C75.7439 143.414 74.539 148.245 73.329 153.072C72.3754 156.884 71.837 160.773 71.3038 164.657C70.7809 168.48 70.7501 172.333 70.7706 176.181C70.7809 177.738 70.6988 179.383 70.8219 180.91C70.9142 182.104 71.0065 183.303 71.1039 184.497C71.2474 186.377 71.4525 188.217 71.7038 190.087C72.3498 194.893 73.2214 199.663 74.4724 204.352C76.0925 210.423 78.1075 216.316 80.9017 221.947C83.6652 227.517 87.0439 232.881 90.8226 237.821C92.8683 240.495 95.0985 242.996 97.4262 245.424C99.3899 247.474 101.307 249.6 103.389 251.537C106.235 254.186 109.034 256.876 112.008 259.382C115.34 262.195 118.698 264.926 122.134 267.606C128.05 272.222 134.095 276.706 140.258 280.989C143.872 283.5 147.518 285.944 151.199 288.362C152.64 289.305 154.142 290.135 155.629 291.001C157.864 292.297 160.079 293.712 162.407 294.834C164.463 295.828 166.513 296.817 168.564 297.811C170.482 298.733 172.538 299.43 174.507 300.234C177.783 301.567 181.208 302.617 184.617 303.534C189.37 304.805 194.128 305.988 198.911 307.131C202.849 308.074 206.858 308.725 210.842 309.406C218.574 310.723 226.459 311.215 234.288 311.476C239.056 311.635 243.824 311.379 248.577 311.005C252.135 310.723 255.76 310.067 259.242 309.298C267.696 307.418 276.063 305.169 284.226 302.253C288.122 300.859 291.957 299.399 295.746 297.739C297.366 297.027 298.935 296.145 300.499 295.31C302.099 294.449 303.724 293.609 305.288 292.687C307.733 291.252 310.281 289.905 312.578 288.234C314.25 287.015 315.849 285.78 317.429 284.443C320.895 281.507 324.063 278.171 327.108 274.8C332.23 269.122 336.958 263.015 341.116 256.594C343.812 252.434 346.32 248.196 348.663 243.826C350.452 240.495 351.749 236.914 352.887 233.317C354.292 228.89 355.338 224.294 356.323 219.749C357.184 215.773 358.055 211.797 358.896 207.815C360.465 200.401 361.368 192.828 362.178 185.296C362.583 181.51 362.839 177.723 363.065 173.926C363.295 170.006 363.649 166.087 363.818 162.162C364.044 157.417 364.157 152.642 363.977 147.871ZM342.105 159.83C341.844 163.822 341.577 167.813 341.336 171.805C340.88 179.527 340.049 187.197 338.962 194.852C338.214 200.145 337.178 205.371 336.04 210.598C335.055 215.107 334.066 219.6 332.964 224.078C332.589 225.252 332.22 226.425 331.846 227.599C331.431 228.91 330.846 230.191 330.349 231.477C329.528 233.609 328.395 235.648 327.298 237.662C324.442 242.36 321.387 246.91 318.1 251.322C316.126 253.981 314.091 256.564 311.938 259.08C310.405 260.868 308.789 262.584 307.159 264.29C305.544 265.807 303.919 267.278 302.222 268.712C300.602 270.091 298.792 271.244 297.002 272.396C292.675 274.871 288.266 277.162 283.692 279.17C280.924 280.39 278.001 281.327 275.156 282.342C272.649 283.239 270.116 284.038 267.578 284.827C262.436 286.215 257.283 287.445 252.038 288.449C247.229 289.372 242.379 289.679 237.503 289.812C233.863 289.689 230.243 289.5 226.613 289.254C222.86 289.003 219.132 288.501 215.41 288.014C208.386 287.092 201.465 285.426 194.584 283.782C195.271 283.961 195.958 284.14 196.64 284.32C194.605 283.802 192.518 283.351 190.534 282.685C188.278 281.922 185.93 281.291 183.725 280.395C181.469 279.472 179.111 278.678 176.911 277.618C174.63 276.516 172.348 275.414 170.067 274.313C167.462 272.801 164.883 271.269 162.355 269.609C158.797 267.273 155.306 264.859 151.809 262.431C145.457 258.014 139.309 253.29 133.213 248.535C130.122 246.121 127.143 243.595 124.143 241.064C121.903 239.173 119.796 237.129 117.663 235.115C116.104 233.486 114.546 231.862 112.992 230.232C109.193 226.266 105.912 221.747 103.025 217.069C100.082 211.884 97.7492 206.417 96.006 200.719C94.9806 196.861 94.1603 192.905 93.6271 188.954C93.3861 187.166 93.0682 185.373 92.9247 183.574C92.7657 181.597 92.6119 179.614 92.4581 177.631C92.4684 178.292 92.4735 178.948 92.4786 179.609C92.4479 177.682 92.3658 175.745 92.4991 173.834C92.6734 171.241 92.8324 168.674 93.1862 166.107C93.545 163.499 93.9808 160.947 94.4884 158.365C94.796 156.792 95.1703 155.229 95.5651 153.677C97.2519 148.066 99.0771 142.578 101.851 137.398C104.461 133.135 107.568 129.118 110.828 125.342C113.295 122.488 115.817 119.7 118.406 116.959C120.821 114.643 123.297 112.45 125.897 110.319C128.255 108.387 130.834 106.717 133.439 105.118C136.218 103.668 139.002 102.325 141.939 101.214C144.477 100.255 147.061 99.4715 149.661 98.708C152.983 97.8062 156.3 96.9915 159.694 96.3869C163.104 95.7823 166.554 95.5876 170.005 95.4032C172.953 95.4134 175.896 95.48 178.849 95.6645C181.695 95.8387 184.53 96.059 187.37 96.2845C183.182 97.4168 178.972 98.4723 174.691 99.246C172.015 99.7328 169.323 100.097 166.636 100.532C165.206 100.763 163.791 100.998 162.371 101.306C161.632 101.465 160.889 101.624 160.156 101.782C159.864 101.834 159.566 101.88 159.269 101.91C157.131 102.182 155.48 103.022 153.732 104.211C152.85 104.78 152.101 105.507 151.481 106.389C150.527 107.639 149.328 110.062 149.328 111.687C149.338 112.665 149.348 113.639 149.363 114.618C149.651 116.519 150.389 118.23 151.563 119.747C153.342 122.022 155.982 123.513 158.848 123.866C160.628 124.086 162.422 123.856 164.073 123.231C164.575 123.139 165.078 123.046 165.57 122.939C166.442 122.749 167.308 122.58 168.185 122.437C170.338 122.088 172.486 121.76 174.645 121.443C178.224 120.915 181.818 120.197 185.32 119.301C193.369 117.226 201.454 115.125 209.165 111.999C209.078 112.291 208.986 112.583 208.899 112.881C206.607 120.413 204.249 127.924 201.849 135.42C200.075 140.959 198.64 146.616 197.26 152.263C196.102 156.987 195.199 161.772 194.948 166.63C194.958 167.608 194.969 168.582 194.984 169.561C195.261 171.38 195.958 173.019 197.045 174.485C196.984 176.17 197.296 177.887 197.932 179.363C199.055 181.966 201.188 184.066 203.808 185.142C206.515 186.254 209.622 186.234 212.308 185.076C215.015 183.913 216.861 181.827 218.092 179.204C221.593 171.749 225.346 164.411 228.92 156.992C232.227 150.131 235.729 143.368 239.097 136.543C241.881 130.911 244.496 125.229 246.972 119.46C248.029 117 249.075 114.536 250.044 112.04C250.31 112.189 250.577 112.337 250.838 112.486C257.057 116.114 263.251 119.782 269.434 123.472C272.813 125.485 276.181 127.514 279.509 129.62C282.662 131.613 285.769 133.658 288.989 135.533C293.419 138.11 297.889 140.606 302.74 142.297C305.57 143.286 308.431 143.439 311.24 142.23C313.845 141.108 315.942 138.982 317.024 136.358C318.136 133.653 318.116 130.553 316.957 127.863C315.885 125.383 313.686 122.99 311.081 122.083C307.518 120.843 304.201 119.152 300.909 117.349C298.156 115.694 295.48 113.946 292.762 112.225C289.435 110.119 286.071 108.095 282.688 106.076C276.791 102.561 270.88 99.077 264.953 95.6132C266.583 95.3417 268.229 95.1521 269.911 95.0804C268.932 95.0906 267.958 95.1008 266.978 95.1162C267.87 95.106 268.768 95.0957 269.66 95.0855C270.731 95.0752 271.808 95.0599 272.88 95.0496C271.9 95.0599 270.926 95.0701 269.947 95.0855C275.269 95.024 280.647 95.6696 285.918 96.3254C288.676 96.6687 291.419 97.0274 294.157 97.5091C296.146 97.8575 298.105 98.3033 300.063 98.7798C302.975 99.6662 305.816 100.655 308.656 101.787C310.835 102.659 312.922 103.745 314.973 104.887C320.146 108.177 325.063 111.789 329.57 115.94C330.759 117.282 331.892 118.645 333.005 120.064C333.84 121.13 334.579 122.278 335.296 123.441C336.306 125.321 337.26 127.207 338.08 129.185C338.773 130.86 339.357 132.556 339.89 134.278C340.547 136.83 341.208 139.402 341.562 142.01C341.967 145.017 342.203 147.984 342.326 151.012C342.341 153.938 342.305 156.889 342.105 159.83Z" fill="#F7F1D7"/>
<path d="M323.173 52.4797C322.425 54.2582 321.28 55.7508 319.77 56.9576L317.337 58.3867C313.838 60.2604 310.42 62.277 307.001 64.2777C301.817 67.39 296.681 70.5658 291.576 73.7733C286.631 76.8538 281.638 79.9343 276.851 83.253C275.102 84.4757 273.337 85.6825 271.588 86.9052C269.632 88.2549 267.771 89.7316 265.8 91.0654C265.179 91.4942 264.543 91.907 263.891 92.304C263.462 92.5898 262.094 93.5267 261.045 94.003C261.379 94.1936 261.713 94.3682 262.031 94.5588C268.853 98.5126 275.627 102.53 282.401 106.563C285.82 108.596 289.207 110.644 292.562 112.756C295.297 114.487 298 116.249 300.767 117.917C304.091 119.727 307.43 121.426 311.024 122.68C313.648 123.601 315.858 125.999 316.939 128.508C318.116 131.207 318.132 134.335 317.003 137.051C315.922 139.702 313.807 141.846 311.183 142.974C308.352 144.18 305.474 144.037 302.612 143.037C297.73 141.338 293.214 138.813 288.762 136.225C285.502 134.335 282.385 132.271 279.205 130.27C275.849 128.143 272.446 126.11 269.043 124.078C262.81 120.362 256.577 116.662 250.295 113.01C250.041 112.867 249.771 112.724 249.5 112.565C248.514 115.074 247.465 117.567 246.4 120.044C243.903 125.84 241.279 131.572 238.465 137.241C235.062 144.117 231.531 150.929 228.208 157.836C224.598 165.299 220.83 172.699 217.299 180.194C216.043 182.845 214.183 184.941 211.464 186.116C208.76 187.276 205.628 187.292 202.893 186.18C200.253 185.084 198.106 182.972 196.977 180.352C196.341 178.876 196.023 177.145 196.087 175.446C194.989 173.969 194.29 172.318 194.004 170.492C193.988 169.507 193.988 168.523 193.972 167.538C194.226 162.647 195.133 157.82 196.293 153.057C197.693 147.372 199.14 141.687 200.921 136.098C203.354 128.555 205.723 120.997 208.029 113.407C208.124 113.105 208.22 112.82 208.299 112.518C200.523 115.662 192.382 117.79 184.272 119.87C180.742 120.775 177.116 121.505 173.506 122.029C171.344 122.347 169.165 122.68 167.002 123.03C166.112 123.173 165.253 123.347 164.363 123.538C163.87 123.649 163.361 123.744 162.852 123.839C161.198 124.475 159.386 124.697 157.589 124.475C154.695 124.125 152.039 122.617 150.242 120.33C149.065 118.806 148.318 117.075 148.032 115.17C148.016 114.185 148 113.201 148 112.216C148 110.581 149.209 108.135 150.163 106.881C150.783 105.992 151.546 105.261 152.437 104.69C154.202 103.499 155.855 102.641 158.018 102.371C158.304 102.339 158.606 102.292 158.909 102.244C159.656 102.085 160.387 101.927 161.135 101.768C162.566 101.45 163.997 101.212 165.444 100.99C168.147 100.545 170.851 100.18 173.554 99.6877C178.913 98.7191 184.176 97.3058 189.424 95.8609C190.028 95.6862 190.616 95.5115 191.221 95.3051C194.974 94.0665 198.647 92.701 202.288 91.1766C205.739 89.7316 209.031 87.9055 212.322 86.1589C212.561 86.0318 212.815 85.9048 213.054 85.7619C211.766 84.825 210.509 83.8405 209.237 82.8243C206.327 80.4901 203.481 78.0289 200.428 75.8852C197.375 73.7416 194.258 71.7408 191.078 69.8036C186.244 67.1677 181.266 64.6906 175.987 63.0551C175.224 62.9122 174.476 62.801 173.697 62.7375C172.95 62.801 172.186 62.7851 171.407 62.6899C170.453 62.4358 169.499 62.1976 168.545 61.9436C166.748 61.1972 165.253 60.054 164.061 58.5296C163.584 57.7356 163.107 56.9258 162.614 56.116C161.834 54.2899 161.564 52.4003 161.803 50.4155C162.168 47.5414 163.663 44.8737 165.953 43.0953C167.495 41.9044 169.213 41.1581 171.137 40.8723C173.363 40.7452 175.796 40.6182 178.022 41.0628C180.233 41.4915 182.459 42.0473 184.606 42.7619C186.212 43.3017 187.786 43.921 189.344 44.5562C191.3 45.366 193.193 46.2235 195.101 47.1285C196.914 47.986 198.647 48.9705 200.396 49.9391C204.419 52.1622 208.379 54.5757 212.147 57.2116C214.787 59.0695 217.315 61.0543 219.828 63.071C219.923 62.1817 220.003 61.3084 220.098 60.4351C220.893 52.5909 221.37 44.715 221.895 36.8708C222.149 33.171 222.436 29.4712 222.69 25.7714C222.817 23.8025 222.96 21.8335 223.104 19.8645C223.151 19.0229 223.215 18.1655 223.278 17.308C223.326 16.8157 223.342 16.3076 223.406 15.8154C223.597 14.0528 224.074 12.3855 224.567 10.6547C224.71 10.3054 224.885 9.97194 225.075 9.63849C225.234 8.28878 225.696 6.85968 226.395 5.55761C227.111 4.25554 228.065 3.11226 229.226 2.3342C230.752 1.14328 232.486 0.412851 234.394 0.127031C234.934 0.0476367 235.475 0 236.016 0C237.447 0 238.846 0.28582 240.214 0.825702C242.838 1.90547 245.016 4.03324 246.129 6.65326C248.689 12.6555 250.216 19.0705 251.774 25.3745C252.935 30.1064 254.239 34.8065 255.527 39.5067C257.642 46.7633 259.836 54.02 261.474 61.4037C261.856 63.0868 262.174 64.7859 262.476 66.4849C263.478 65.8021 264.48 65.1193 265.497 64.4683C272.097 60.1334 278.759 55.8619 285.486 51.7493C293.103 47.0809 300.735 42.3808 308.623 38.1729C311.119 36.839 314.649 37.0613 317.178 38.1093C319.817 39.1891 321.964 41.301 323.109 43.921C324.27 46.6363 324.302 49.7486 323.173 52.4797Z" fill="#182C2D"/>
<path d="M35.7121 425.954C38.0295 429.341 41.357 431.057 45.5919 431.057C49.8115 431.057 53.0518 429.51 55.2257 426.451C57.1022 423.802 61.3013 414.553 68.069 398.172C72.2732 387.935 77.8822 374.269 78.0514 373.87C79.487 371 81.666 368.234 84.5269 365.641C88.0748 362.428 89.7975 359.595 89.7975 356.992C89.7975 350.49 80.092 350.49 76.9081 350.49C62.7574 350.49 57.2406 352.093 57.2406 356.213C57.2406 357.96 57.8456 360.015 59.0915 362.505C60.0298 364.386 60.5117 365.989 60.5117 367.265C60.5117 372.773 57.3175 383.139 51.0164 398.07C50.5755 399.125 50.2114 399.909 49.9192 400.499C49.6218 399.935 49.2578 399.187 48.8066 398.193C42.0491 383.016 38.6243 372.112 38.6243 365.795C38.6243 364.329 38.9216 363.094 39.5215 362.023C40.4751 360.343 40.9571 358.56 40.9571 356.725C40.9571 354.476 39.8342 352.672 37.7937 351.648C36.6452 351.074 34.3534 350.418 26.709 350.418C26.7038 350.418 26.7038 350.418 26.6987 350.418L22.9252 350.495C3.77046 350.495 0.140503 352.257 0.140503 355.516V356.997C0.140503 359.062 1.86832 361.434 5.74439 364.688C8.76935 367.229 10.9484 369.735 12.2199 372.133C13.5734 374.685 17.3418 383.6 23.4276 398.639C29.6724 414.072 33.692 423.008 35.7121 425.954Z" fill="#F7F1D7"/>
<path d="M115.253 428.576C119.832 430.375 124.41 431.287 128.86 431.287H132.68C139.617 431.287 146.41 429.658 152.876 426.44C159.91 422.94 163.325 419.343 163.325 415.444C163.325 411.765 161.243 409.567 157.757 409.567C156.998 409.567 155.352 409.838 148.497 411.827C143.693 413.22 140.073 413.922 137.741 413.922C132.634 413.922 128.394 412.631 125.138 410.074C120.749 406.667 118.617 402.793 118.617 398.238C118.617 396.496 119.022 395.307 119.816 394.713C120.257 394.38 121.816 393.606 126.681 393.606C142.206 393.606 152.604 392.684 158.474 390.783C163.335 389.21 165.898 385.746 165.898 380.766C165.898 376.436 165.022 372.127 163.289 367.946C161.54 363.739 158.997 360.086 155.716 357.083C149.533 351.514 141.863 348.69 132.916 348.69H131.122C125.138 348.69 119.345 349.961 113.889 352.467C104.753 356.73 98.2878 363.796 94.6784 373.464C92.7813 378.552 91.8226 383.902 91.8226 389.364V392.945C91.8226 398.346 93.1402 404.095 95.7345 410.038C99.5798 418.831 106.148 425.067 115.253 428.576ZM121.647 367.649C124.21 364.733 126.846 363.252 129.481 363.252H131.742C134.362 363.252 136.654 364.421 138.751 366.829C140.93 369.319 141.986 371.983 141.986 374.971V377.538C141.986 379.316 141.422 379.603 140.073 379.603C139.791 379.603 139.356 379.633 138.253 379.849L125.384 380.617L119.791 380.689L118.806 380.535C117.678 380.535 117.678 380.346 117.678 379.715V378.47C117.683 374.228 118.981 370.687 121.647 367.649Z" fill="#F7F1D7"/>
<path d="M267.778 422.141C267.778 419.753 266.097 417.535 262.646 415.372C259.467 413.384 258.57 412.17 258.324 411.632C258.144 411.207 257.575 408.834 257.575 396.06C257.575 377.594 256.273 366.153 253.592 361.07C249.331 353.117 242.163 349.085 232.299 349.085H229.807C225.941 349.085 221.742 350.12 217.43 352.113C217.205 352.205 216.897 352.328 212.442 354.931C209.822 356.463 208.643 356.955 208.207 357.109C207.894 356.848 207.197 356.151 205.992 354.409C203.905 351.391 201.224 349.864 198.025 349.864C188.637 349.864 181.7 351.227 176.839 354.019C174.363 355.413 173.84 357.078 173.84 358.231V359.866C173.84 360.726 173.84 360.726 177.86 365.276C180.023 367.726 181.469 369.862 182.156 371.63C182.541 372.614 183.187 376.498 183.187 391.429C183.187 407.041 182.843 410.115 182.7 410.71C182.597 411.14 182.013 412.365 178.895 414.424C175.542 416.638 173.84 419.051 173.84 421.593C173.84 424.114 175.03 426.214 177.28 427.649C178.675 428.546 181.705 429.57 192.841 429.57C201.034 429.57 206.253 429.314 208.796 428.787C212.119 428.1 214.026 426.02 214.026 423.068C214.026 422.156 213.759 420.465 211.704 415.464C209.422 409.664 208.263 400.283 208.263 387.575C208.263 378.342 209.791 374.289 211.073 372.506C213.852 368.632 217.354 366.752 221.778 366.752C226.034 366.752 228.771 368.187 230.151 371.128C231.755 374.545 232.566 381.263 232.566 391.075C232.566 403.536 232.33 407.497 232.13 408.619C231.848 410.207 231.074 412.395 229.828 415.126C228.366 418.334 227.654 420.737 227.654 422.484C227.654 423.944 228.182 426.066 230.699 427.859C231.961 428.761 234.75 429.801 245.178 429.801C252.843 429.801 258.206 429.33 261.564 428.356C266.702 426.886 267.778 424.165 267.778 422.141Z" fill="#F7F1D7"/>
<path d="M293.727 428.833C297.726 430.718 301.822 431.677 305.903 431.677H308.159C313.21 431.677 318.726 430.073 324.535 426.927C326.232 426.04 327.294 425.61 327.914 425.405C328.216 425.779 328.673 426.348 329.355 427.224C331.211 429.612 333.856 430.821 337.214 430.821C348.15 430.821 355.18 429.391 358.723 426.44C360.24 425.154 361.009 423.786 361.009 422.377V421.055C361.009 419.41 359.881 417.863 357.348 416.039C355.293 414.553 354.8 414.148 354.78 414.148C354.78 414.148 354.78 414.148 354.78 414.153C353.457 412.524 352.529 410.187 352.021 407.205C351.473 403.992 351.196 389.395 351.196 363.806C351.196 337.654 350.97 323.435 350.509 320.34C349.976 316.779 348.889 314.448 347.187 313.213C345.566 312.045 342.7 311.497 338.148 311.497C333.949 311.497 329.257 312.316 324.202 313.93C320.121 315.232 315.44 317.179 315.44 320.72C315.44 322.072 316.301 323.656 320.582 327.324C324.048 330.378 325.802 336.224 325.802 344.694C325.802 349.044 324.976 351.032 324.207 351.037C323.884 351.032 322.93 350.93 321.285 350.735L319.598 350.576C318.798 350.52 316.434 350.494 312.364 350.494C295.362 350.494 283.503 358.549 277.11 374.433C274.895 379.9 273.767 385.818 273.767 392.023V394.513C273.767 399.35 274.618 404.218 276.305 408.988C279.653 418.298 285.513 424.98 293.727 428.833ZM297.998 387.422C297.998 380.71 299.531 375.002 302.561 370.467C305.447 366.137 308.836 364.031 312.917 364.031H313.62C318.152 364.031 321.064 365.302 322.531 367.915C323.674 369.96 325.033 374.638 325.033 385.321V396.143C325.033 406.196 323.94 410.018 323.018 411.458C321.121 414.43 318.255 415.875 314.245 415.875H312.922C308.518 415.875 304.791 413.226 301.53 407.769C299.187 403.854 298.003 398.71 298.003 392.479V387.422H297.998Z" fill="#F7F1D7"/>
<path d="M442.817 414.799C440.781 414.04 439.489 412.933 438.853 411.422C438.515 410.612 437.725 406.79 437.725 388.903C437.725 374.92 436.541 366.05 434.101 361.797C431.665 357.55 428.168 354.342 423.718 352.272C419.386 350.258 414.782 349.239 410.034 349.239H405.984C396.786 349.239 387.957 351.58 379.728 356.202C374.278 359.282 371.514 363.55 371.514 368.894C371.514 370.928 372.371 372.88 374.047 374.694C375.77 376.554 378.256 377.497 381.44 377.497C386.516 377.497 390.972 375.007 394.694 370.103C397.632 366.229 400.734 364.344 404.189 364.344C406.245 364.344 408.004 365.082 409.562 366.604C411.085 368.084 411.859 370.718 411.859 374.428C411.859 378.983 410.008 380.274 408.604 380.858C408.229 381.017 406.66 381.493 400.108 382.513C378.292 386.166 367.228 395.415 367.228 410.018C367.285 416.889 369.597 422.336 374.104 426.199C378.518 429.991 384.424 431.912 391.648 431.912H392.52L392.602 431.825C399.554 431.671 406.122 429.514 412.157 425.384C413.551 424.401 414.254 424.098 414.541 424.006C414.766 424.165 415.274 424.595 416.13 425.697C418.919 429.15 422.318 430.903 426.23 430.903C431.814 430.903 436.731 430.083 440.848 428.464C442.617 427.772 448 425.656 448 421.603V420.435C448.015 417.986 446.267 416.09 442.817 414.799ZM412.357 404.679L412.182 406.17C412.172 406.447 412.075 406.99 411.911 407.804L411.87 408.209C411.87 409.603 410.875 411.176 408.916 412.882C406.845 414.686 404.405 415.567 401.472 415.567H398.98C397.206 415.567 395.724 414.86 394.463 413.4C393.12 411.852 392.474 410.054 392.474 407.897V406.108C392.474 403.239 393.817 400.698 396.581 398.336C399.441 395.891 402.897 394.703 407.153 394.703C407.952 394.703 409.014 394.57 410.393 394.298L412.018 394.206C412.023 394.211 412.259 394.544 412.259 395.753C412.259 396.066 412.305 396.522 412.413 397.121L412.418 400.216L412.336 401.589L412.357 404.679Z" fill="#F7F1D7"/>
<path d="M92.9559 478.545C78.8052 478.545 73.2885 480.149 73.2885 484.269C73.2885 486.016 73.8935 488.071 75.1393 490.561C76.0776 492.441 76.5595 494.045 76.5595 495.321C76.5595 500.829 73.3654 511.195 67.0642 526.125C66.6233 527.181 66.2593 527.965 65.967 528.554C65.6696 527.991 65.3056 527.243 64.8544 526.249C58.097 511.072 54.6721 500.168 54.6721 493.85C54.6721 492.385 54.9695 491.15 55.5693 490.079C56.523 488.399 57.0049 486.615 57.0049 484.781C57.0049 482.532 55.8821 480.728 53.8415 479.703C52.693 479.129 50.4012 478.474 42.7568 478.474C42.7517 478.474 42.7517 478.474 42.7465 478.474L38.973 478.55C19.8183 478.55 16.1883 480.313 16.1883 483.572V485.053C16.1883 487.118 17.9161 489.49 21.7922 492.744C24.8172 495.285 26.9962 497.791 28.2677 500.189C29.6212 502.74 33.3896 511.656 39.4755 526.694C45.7202 542.138 49.7398 551.074 51.7599 554.02C54.0773 557.407 57.4048 559.123 61.6398 559.123C65.8593 559.123 69.0996 557.576 71.2735 554.517C73.15 551.868 77.3491 542.619 84.1168 526.238C88.321 516.001 93.93 502.335 94.0992 501.936C95.5348 499.066 97.7138 496.3 100.575 493.707C104.123 490.494 105.845 487.661 105.845 485.058C105.845 478.545 96.1398 478.545 92.9559 478.545Z" fill="#F7F1D7"/>
<path d="M142.724 521.672C158.249 521.672 168.647 520.75 174.517 518.849C179.378 517.276 181.941 513.812 181.941 508.832C181.941 504.502 181.065 500.193 179.332 496.012C177.583 491.805 175.04 488.152 171.759 485.149C165.576 479.58 157.906 476.756 148.959 476.756H147.164C141.181 476.756 135.388 478.027 129.932 480.533C120.796 484.796 114.331 491.861 110.721 501.53C108.824 506.618 107.866 511.967 107.866 517.43V521.011C107.866 526.412 109.183 532.161 111.777 538.104C115.623 546.892 122.196 553.127 131.296 556.637C135.875 558.436 140.453 559.348 144.903 559.348H148.723C155.66 559.348 162.453 557.718 168.919 554.501C175.953 551.001 179.368 547.404 179.368 543.505C179.368 539.826 177.286 537.628 173.8 537.628C173.041 537.628 171.395 537.899 164.54 539.887C159.736 541.276 156.116 541.983 153.784 541.983C148.677 541.983 144.437 540.692 141.181 538.135C136.792 534.728 134.66 530.854 134.66 526.299C134.66 524.557 135.065 523.368 135.859 522.774C136.305 522.446 137.864 521.672 142.724 521.672ZM137.69 495.71C140.253 492.794 142.888 491.313 145.524 491.313H147.785C150.405 491.313 152.697 492.481 154.794 494.89C156.973 497.38 158.029 500.044 158.029 503.032V505.599C158.029 507.377 157.465 507.663 156.116 507.663C155.834 507.663 155.399 507.694 154.296 507.909L141.427 508.678L135.834 508.75L134.849 508.596C133.721 508.596 133.721 508.406 133.721 507.776V506.531C133.726 502.283 135.024 498.748 137.69 495.71Z" fill="#F7F1D7"/>
<path d="M244.215 479.4C239.482 479.4 234.053 481.557 227.706 485.938C226.742 486.538 226.188 486.814 225.896 486.942C225.711 486.732 225.352 486.215 224.932 485.047C223.922 482.254 223.05 480.763 221.979 480.051C220.087 478.811 216.928 478.232 212.048 478.232C207.525 478.232 202.419 478.99 196.856 480.486C191.16 482.054 189.965 485.185 189.965 487.537C189.965 490.022 191.657 492.282 194.99 494.254C197.2 495.566 198.594 497.098 199.132 498.82C199.491 499.957 200.091 504.025 200.091 518.444C200.091 532.863 199.584 536.639 199.286 537.602C198.958 538.663 197.933 540.482 194.913 543.126C191.734 545.913 190.119 548.818 190.119 551.759C190.119 555.454 193.564 557.324 200.358 557.324C201.517 557.324 202.629 557.349 203.685 557.401L205.423 557.483C206.531 557.483 207.618 557.508 208.674 557.56L217.108 557.641C231.597 557.641 237.242 556.017 237.242 551.841C237.242 549.151 235.56 546.021 232.099 542.27C229.192 539.124 227.265 536.582 226.367 534.717C225.891 533.728 225.091 530.772 225.091 522.067C225.091 515.277 225.475 510.271 226.239 507.187C226.937 504.364 228.167 502.186 229.895 500.715C231.556 499.306 233.033 498.558 234.166 498.558C235.104 498.558 236.955 498.881 240.421 500.408C243.779 501.889 246.409 502.606 248.46 502.606C250.911 502.606 253.054 501.294 254.833 498.717C256.443 496.381 257.258 493.696 257.258 490.739C257.258 487.711 256.325 485.062 254.474 482.869C252.515 480.533 249.157 479.4 244.215 479.4Z" fill="#F7F1D7"/>
<path d="M346.213 544.094C344.157 542.608 343.664 542.203 343.644 542.203C343.644 542.203 343.644 542.203 343.644 542.209C342.321 540.579 341.393 538.243 340.886 535.261C340.337 532.048 340.06 517.45 340.06 491.862C340.06 465.71 339.834 451.491 339.373 448.396C338.84 444.835 337.753 442.504 336.051 441.269C334.431 440.101 331.565 439.552 327.012 439.552C322.813 439.552 318.121 440.372 313.066 441.986C308.985 443.288 304.304 445.235 304.304 448.775C304.304 450.128 305.165 451.711 309.446 455.38C312.912 458.434 314.666 464.28 314.666 472.75C314.666 477.105 313.84 479.088 313.071 479.093C312.748 479.088 311.789 478.985 310.149 478.791L308.462 478.632C307.662 478.576 305.299 478.55 301.228 478.55C284.226 478.55 272.367 486.605 265.974 502.489C263.759 507.956 262.631 513.874 262.631 520.079V522.569C262.631 527.406 263.482 532.273 265.169 537.044C268.512 546.359 274.372 553.04 282.586 556.894C286.585 558.779 290.681 559.737 294.762 559.737H297.018C302.069 559.737 307.585 558.134 313.394 554.988C315.091 554.101 316.153 553.671 316.773 553.466C317.075 553.84 317.532 554.409 318.214 555.285C320.07 557.672 322.715 558.882 326.073 558.882C337.009 558.882 344.039 557.452 347.581 554.501C349.099 553.215 349.868 551.847 349.868 550.438V549.116C349.873 547.466 348.745 545.918 346.213 544.094ZM286.857 515.483C286.857 508.77 288.389 503.062 291.42 498.528C294.306 494.198 297.695 492.092 301.771 492.092H302.474C307.006 492.092 309.918 493.363 311.384 495.976C312.528 498.021 313.886 502.699 313.886 513.382V524.203C313.886 534.256 312.794 538.079 311.871 539.519C309.974 542.49 307.108 543.935 303.099 543.935H301.776C297.372 543.935 293.645 541.286 290.384 535.829C288.041 531.915 286.857 526.77 286.857 520.54V515.483Z" fill="#F7F1D7"/>
<path d="M390.956 521.673C406.481 521.673 416.884 520.751 422.754 518.85C427.61 517.277 430.178 513.808 430.178 508.832C430.178 504.503 429.302 500.194 427.569 496.018C425.825 491.811 423.277 488.163 419.991 485.155C413.813 479.585 406.143 476.762 397.191 476.762H395.396C389.413 476.762 383.625 478.033 378.164 480.538C369.023 484.807 362.563 491.867 358.953 501.536C357.056 506.619 356.097 511.973 356.097 517.435V521.017C356.097 526.417 357.415 532.166 360.009 538.11C363.855 546.898 370.427 553.133 379.528 556.643C384.107 558.442 388.685 559.354 393.135 559.354H396.95C403.887 559.354 410.68 557.724 417.145 554.506C424.18 551.007 427.599 547.41 427.599 543.511C427.599 539.832 425.518 537.634 422.031 537.634C421.273 537.634 419.622 537.905 412.772 539.893C407.968 541.282 404.348 541.989 402.01 541.989C396.899 541.989 392.664 540.698 389.413 538.141C385.024 534.734 382.886 530.865 382.886 526.305C382.886 524.563 383.291 523.374 384.086 522.78C384.542 522.446 386.096 521.673 390.956 521.673ZM385.927 495.71C388.526 492.749 391.09 491.314 393.761 491.314H396.017C398.637 491.314 400.928 492.482 403.03 494.89C405.204 497.381 406.261 500.045 406.261 503.032V505.599C406.261 507.377 405.697 507.664 404.353 507.664C404.071 507.664 403.635 507.695 402.533 507.91L389.664 508.679L384.076 508.75L383.091 508.597C381.958 508.597 381.958 508.407 381.958 507.777V506.532C381.958 502.289 383.261 498.749 385.927 495.71Z" fill="#F7F1D7"/>
</svg>
