<svg width="1358" height="1442" viewBox="0 0 1358 1442" fill="none" xmlns="http://www.w3.org/2000/svg">
<path d="M708.992 354.35C691.76 354.35 674.456 353.401 657.151 353.036C639.408 352.597 621.811 350.991 604.214 349.239C569.604 345.734 534.994 342.01 500.238 340.696C477.238 339.82 454.238 339.966 431.164 341.207C414.371 342.156 397.139 344.201 380.71 348.143C358.513 353.474 336.681 359.753 314.776 366.179C297.398 371.29 280.823 378.007 264.395 385.455C252.931 390.639 242.125 397.503 231.464 404.001C223.505 408.82 215.839 413.931 208.099 419.116C193.203 429.119 179.695 441.24 166.406 453.214C149.686 468.256 134.498 485.342 119.311 501.989C107.628 514.84 96.6026 528.421 86.0152 542.221C83.1676 545.872 80.3929 549.523 77.5453 553.247C67.9071 565.806 60.1673 579.971 52.3546 593.698C43.7386 608.885 37.3862 624.876 31.4718 641.305C23.6591 663.064 18.1098 685.407 12.4875 707.75C8.03353 725.42 5.55097 743.382 3.14142 761.417C0.731873 779.087 0.58584 796.976 0.658857 814.792C0.731873 822.021 0.366791 829.614 0.877906 836.697C1.31601 842.246 1.75411 847.796 2.1922 853.272C2.84935 861.961 3.79857 870.504 4.96683 879.12C7.96051 901.39 11.9764 923.441 17.7447 945.2C25.2654 973.311 34.5385 1000.62 47.4625 1026.69C60.2404 1052.46 75.8659 1077.29 93.3899 1100.21C102.882 1112.63 113.177 1124.16 123.984 1135.41C133.038 1144.9 141.946 1154.76 151.584 1163.74C164.727 1176 177.724 1188.49 191.451 1200.1C206.858 1213.1 222.41 1225.8 238.328 1238.22C265.709 1259.61 293.674 1280.35 322.224 1300.21C338.945 1311.82 355.811 1323.13 372.824 1334.3C379.469 1338.69 386.478 1342.56 393.342 1346.5C403.71 1352.49 413.933 1359.06 424.666 1364.24C434.158 1368.84 443.65 1373.44 453.142 1378.04C461.977 1382.35 471.543 1385.56 480.67 1389.29C495.857 1395.49 511.702 1400.31 527.473 1404.55C549.451 1410.39 571.502 1415.94 593.626 1421.19C611.807 1425.58 630.427 1428.57 648.827 1431.71C684.605 1437.84 721.113 1440.11 757.329 1441.27C779.38 1442 801.431 1440.84 823.482 1439.08C839.911 1437.77 856.705 1434.78 872.842 1431.2C911.978 1422.51 950.677 1412.07 988.5 1398.56C1006.53 1392.13 1024.28 1385.34 1041.8 1377.68C1049.32 1374.39 1056.55 1370.3 1063.78 1366.43C1071.23 1362.42 1078.68 1358.55 1085.98 1354.31C1097.29 1347.67 1109.12 1341.46 1119.71 1333.72C1127.45 1328.1 1134.82 1322.33 1142.13 1316.2C1158.19 1302.62 1172.87 1287.14 1186.89 1271.58C1210.62 1245.3 1232.45 1217.04 1251.72 1187.32C1264.21 1168.05 1275.82 1148.4 1286.63 1128.18C1294.88 1112.77 1300.86 1096.12 1306.19 1079.55C1312.69 1059.03 1317.51 1037.78 1322.11 1016.76C1326.13 998.356 1330.14 979.955 1334.01 961.482C1341.24 927.165 1345.48 892.044 1349.2 857.215C1351.1 839.691 1352.27 822.167 1353.29 804.57C1354.39 786.389 1355.99 768.281 1356.8 750.1C1357.74 728.049 1358.26 705.925 1357.45 683.874C1357.09 674.454 1356.5 665.108 1355.77 655.689C1355.04 646.635 1353.14 637.581 1351.46 628.673C1347.52 607.498 1341.39 586.542 1334.16 566.317C1326.86 545.872 1315.98 527.18 1304.66 508.707C1284.07 475.265 1254.43 448.322 1222.96 425.249C1191.05 401.884 1156.36 381.731 1118.91 368.807C1081.3 355.81 1042.39 348.655 1002.96 344.054C989.96 342.521 976.89 341.28 963.82 340.185C949.29 339.016 934.76 339.016 920.229 339.162C920.521 339.162 920.886 339.162 921.178 339.162C920.813 339.162 920.521 339.162 920.156 339.162C918.477 339.162 916.797 339.162 915.118 339.235C919.645 339.162 924.172 339.162 928.699 339.089C921.617 339.162 914.607 339.235 907.597 339.308C911.686 339.235 915.775 339.235 919.864 339.162C906.94 339.308 894.454 339.82 881.677 342.01C866.708 344.566 852.178 349.531 837.794 353.985L708.992 354.35Z" fill="#49B577"/>
<path d="M1168.78 241.32C1165.34 249.498 1160.09 256.361 1153.15 261.91L1141.98 268.482C1125.91 277.098 1110.22 286.371 1094.52 295.571C1070.71 309.882 1047.13 324.486 1023.69 339.235C1000.98 353.4 978.056 367.565 956.078 382.826C948.046 388.448 939.942 393.997 931.91 399.62C922.929 405.826 914.386 412.616 905.332 418.75C902.484 420.721 899.563 422.62 896.57 424.445C894.598 425.759 888.319 430.067 883.5 432.258C885.033 433.134 886.567 433.937 888.027 434.814C919.351 452.995 950.456 471.468 981.561 490.014C997.26 499.36 1012.81 508.779 1028.22 518.49C1040.78 526.449 1053.19 534.554 1065.9 542.221C1081.16 550.545 1096.49 558.358 1112.99 564.126C1125.04 568.361 1135.19 579.386 1140.15 590.923C1145.56 603.336 1145.63 617.72 1140.44 630.206C1135.48 642.4 1125.77 652.257 1113.72 657.441C1100.72 662.99 1087.51 662.333 1074.36 657.733C1051.95 649.92 1031.21 638.311 1010.77 626.409C995.799 617.72 981.488 608.228 966.885 599.028C951.478 589.244 935.853 579.897 920.227 570.551C891.605 553.465 862.982 536.453 834.141 519.659C832.972 519.002 831.731 518.344 830.49 517.614C825.963 529.151 821.144 540.614 816.252 552.005C804.788 578.656 792.74 605.015 779.816 631.082C764.191 662.698 747.981 694.022 732.721 725.784C716.146 760.102 698.841 794.128 682.631 828.592C676.863 840.786 668.32 850.424 655.834 855.827C643.421 861.157 629.037 861.23 616.478 856.119C604.358 851.081 594.5 841.37 589.316 829.322C586.396 822.531 584.935 814.573 585.227 806.76C580.189 799.969 576.976 792.376 575.662 783.979C575.589 779.452 575.589 774.925 575.516 770.398C576.684 747.908 580.846 725.711 586.176 703.806C592.602 677.667 599.246 651.527 607.424 625.825C618.596 591.142 629.475 556.386 640.063 521.484C640.501 520.097 640.939 518.783 641.304 517.395C605.599 531.853 568.214 541.637 530.976 551.202C514.766 555.364 498.119 558.723 481.544 561.132C471.614 562.592 461.61 564.126 451.68 565.732C447.591 566.389 443.648 567.193 439.559 568.069C437.296 568.58 434.959 569.018 432.623 569.456C425.029 572.377 416.705 573.399 408.454 572.377C395.165 570.77 382.971 563.834 374.721 553.319C369.317 546.31 365.886 538.351 364.571 529.589C364.498 525.062 364.425 520.535 364.425 516.008C364.425 508.487 369.975 497.243 374.356 491.474C377.203 487.385 380.708 484.027 384.797 481.398C392.902 475.922 400.495 471.979 410.426 470.738C411.74 470.592 413.127 470.373 414.515 470.154C417.946 469.423 421.305 468.693 424.737 467.963C431.308 466.503 437.88 465.407 444.524 464.385C456.937 462.341 469.35 460.661 481.763 458.398C506.369 453.944 530.538 447.445 554.633 440.801C557.408 439.998 560.11 439.195 562.884 438.245C580.116 432.55 596.983 426.271 613.704 419.261C629.548 412.616 644.663 404.22 659.777 396.188C660.872 395.604 662.041 395.019 663.136 394.362C657.222 390.054 651.453 385.527 645.612 380.854C632.25 370.121 619.18 358.803 605.161 348.946C591.142 339.089 576.83 329.889 562.227 320.981C540.03 308.86 517.176 297.469 492.934 289.949C489.43 289.292 485.998 288.78 482.42 288.488C478.988 288.78 475.483 288.707 471.906 288.269C467.525 287.101 463.144 286.006 458.763 284.838C450.512 281.406 443.648 276.149 438.172 269.139C435.982 265.488 433.791 261.764 431.528 258.04C427.95 249.644 426.708 240.955 427.804 231.828C429.483 218.612 436.347 206.345 446.861 198.167C453.944 192.691 461.829 189.259 470.664 187.945C480.887 187.36 492.058 186.776 502.281 188.821C512.43 190.792 522.652 193.348 532.509 196.634C539.884 199.116 547.113 201.964 554.268 204.884C563.249 208.608 571.938 212.551 580.7 216.713C589.024 220.656 596.983 225.183 605.015 229.637C623.488 239.859 641.669 250.958 658.974 263.079C671.095 271.622 682.704 280.749 694.241 290.022C694.679 285.933 695.044 281.917 695.482 277.901C699.133 241.831 701.324 205.615 703.733 169.544C704.901 152.532 706.216 135.519 707.384 118.506C707.968 109.452 708.625 100.398 709.282 91.3437C709.501 87.4738 709.793 83.5309 710.086 79.588C710.305 77.3245 710.378 74.988 710.67 72.7245C711.546 64.6196 713.736 56.9529 716 48.9941C716.657 47.3877 717.46 45.8544 718.336 44.321C719.067 38.1146 721.184 31.5431 724.397 25.5558C727.683 19.5684 732.064 14.3112 737.394 10.7334C744.403 5.25719 752.362 1.89843 761.124 0.584132C763.607 0.21905 766.089 0 768.572 0C775.143 0 781.569 1.3143 787.848 3.79686C799.896 8.76199 809.899 18.5462 815.01 30.5939C826.766 58.1942 833.776 87.6929 840.931 116.68C846.261 138.439 852.249 160.052 858.163 181.665C867.874 215.034 877.951 248.402 885.471 282.355C887.224 290.095 888.684 297.907 890.071 305.72C894.671 302.581 899.271 299.441 903.944 296.447C934.246 276.514 964.84 256.872 995.726 237.961C1030.7 216.494 1065.75 194.881 1101.97 175.532C1113.43 169.398 1129.64 170.421 1141.25 175.24C1153.37 180.205 1163.23 189.916 1168.48 201.964C1173.81 214.45 1173.96 228.761 1168.78 241.32Z" fill="#182C2D"/>
</svg>
